<?xml version="1.0" encoding="UTF-8"?><svg id="Layer_4" xmlns="http://www.w3.org/2000/svg" xmlns:xlink="http://www.w3.org/1999/xlink" viewBox="0 0 1721.79 2039.42"><defs><style>.cls-1{fill:url(#linear-gradient-75);}.cls-2{fill:#525575;}.cls-3{fill:url(#linear-gradient-2);}.cls-4{opacity:.11;}.cls-4,.cls-5,.cls-6,.cls-7,.cls-8,.cls-9,.cls-10,.cls-11,.cls-12,.cls-13,.cls-14,.cls-15,.cls-16,.cls-17,.cls-18,.cls-19,.cls-20,.cls-21,.cls-22,.cls-23,.cls-24,.cls-25,.cls-26,.cls-27,.cls-28,.cls-29,.cls-30,.cls-31{fill:#040716;}.cls-32{fill:url(#linear-gradient-51);}.cls-33{fill:#b8bbbc;}.cls-34{fill:#fff;}.cls-5{opacity:.06;}.cls-35{fill:url(#linear-gradient-17);}.cls-36{fill:url(#linear-gradient-87);}.cls-37{fill:url(#linear-gradient-92);}.cls-38{fill:url(#linear-gradient-80);}.cls-39{fill:url(#linear-gradient-43);}.cls-6{opacity:.56;}.cls-7{opacity:.43;}.cls-40{fill:url(#linear-gradient-15);}.cls-41{fill:url(#linear-gradient-58);}.cls-42{fill:#9ea1ab;}.cls-43{fill:url(#linear-gradient-69);}.cls-44{fill:url(#linear-gradient-81);}.cls-45{fill:url(#linear-gradient-18);}.cls-46{fill:url(#linear-gradient-56);}.cls-47{fill:url(#linear-gradient-40);}.cls-48{fill:url(#linear-gradient-52);}.cls-49{fill:url(#linear-gradient-28);}.cls-50{fill:url(#linear-gradient-14);}.cls-51{fill:url(#linear-gradient-36);}.cls-52{fill:url(#linear-gradient-78);}.cls-53{fill:url(#linear-gradient-20);}.cls-54{fill:url(#linear-gradient-6);}.cls-55{fill:#7d8088;}.cls-56{clip-path:url(#clippath-2);}.cls-57{fill:url(#linear-gradient-53);}.cls-58{fill:#6c6f76;}.cls-59{isolation:isolate;}.cls-8{opacity:.52;}.cls-9{opacity:.04;}.cls-60{opacity:.2;}.cls-61{fill:url(#linear-gradient-91);}.cls-62{fill:url(#linear-gradient-60);}.cls-10{opacity:.24;}.cls-63{fill:url(#linear-gradient-84);}.cls-64{fill:#767880;}.cls-65{fill:url(#linear-gradient-35);}.cls-66{fill:url(#linear-gradient-48);}.cls-67{fill:#898d95;}.cls-68{fill:url(#linear-gradient-32);}.cls-69{fill:#e0e0e0;}.cls-70{fill:url(#linear-gradient-11);}.cls-71{fill:url(#linear-gradient-50);}.cls-72{fill:#7f828a;}.cls-73{fill:url(#linear-gradient-63);}.cls-74{fill:url(#linear-gradient-67);}.cls-75{fill:url(#linear-gradient-86);}.cls-76{fill:url(#linear-gradient-39);}.cls-11{opacity:.37;}.cls-77{clip-path:url(#clippath-1);}.cls-78{clip-path:url(#clippath-4);}.cls-79{fill:url(#linear-gradient-10);}.cls-80{fill:#81848c;}.cls-81{fill:url(#linear-gradient-59);}.cls-12{opacity:.34;}.cls-13{opacity:.3;}.cls-14{opacity:0;}.cls-15{opacity:.32;}.cls-16{opacity:.49;}.cls-82{fill:url(#linear-gradient-49);}.cls-83{fill:url(#linear-gradient-37);}.cls-84{fill:url(#linear-gradient-82);}.cls-17{opacity:.41;}.cls-85{fill:url(#linear-gradient-16);}.cls-86{fill:#9699a3;}.cls-87{fill:url(#linear-gradient-31);}.cls-18{opacity:.47;}.cls-88{fill:url(#linear-gradient-85);}.cls-89{fill:url(#linear-gradient-61);}.cls-90{fill:url(#linear-gradient-68);}.cls-91{fill:url(#linear-gradient-62);}.cls-92{fill:url(#linear-gradient-41);}.cls-93{fill:url(#linear-gradient-76);}.cls-94{fill:url(#linear-gradient-21);}.cls-95{fill:url(#linear-gradient-72);}.cls-19{opacity:.13;}.cls-96{fill:url(#linear-gradient-25);}.cls-97{fill:url(#linear-gradient-89);}.cls-20{opacity:.17;}.cls-98{fill:url(#linear-gradient-5);}.cls-99{fill:url(#linear-gradient-64);}.cls-100{fill:#b25d10;}.cls-100,.cls-24{opacity:.58;}.cls-101{fill:url(#linear-gradient-83);}.cls-102{fill:url(#linear-gradient-54);}.cls-103{fill:url(#linear-gradient-45);}.cls-104{fill:url(#linear-gradient-55);}.cls-105{clip-path:url(#clippath);}.cls-106{fill:url(#linear-gradient-34);}.cls-107{fill:url(#linear-gradient-65);}.cls-108{fill:url(#linear-gradient-70);}.cls-109{fill:#858891;}.cls-21{opacity:.21;}.cls-22{opacity:.15;}.cls-110,.cls-111{fill:none;}.cls-23{opacity:.26;}.cls-112{fill:#686b71;}.cls-113{fill:url(#linear-gradient-79);}.cls-114{fill:url(#linear-gradient-88);}.cls-115{clip-path:url(#clippath-3);}.cls-116{fill:url(#linear-gradient-7);}.cls-117{fill:url(#linear-gradient-66);}.cls-25{opacity:.02;}.cls-118{fill:url(#linear-gradient-24);}.cls-119{fill:url(#linear-gradient-73);}.cls-120{fill:url(#linear-gradient-9);}.cls-121{fill:url(#linear-gradient-22);}.cls-122{fill:url(#linear-gradient-74);}.cls-123{fill:url(#linear-gradient-42);}.cls-26{opacity:.45;}.cls-124{fill:url(#linear-gradient-3);}.cls-125{clip-path:url(#clippath-5);}.cls-126{fill:#a6aab5;}.cls-127{fill:url(#linear-gradient);}.cls-128{fill:#b5b5b5;}.cls-129{fill:url(#linear-gradient-27);}.cls-130{fill:#e5790e;}.cls-131{fill:url(#linear-gradient-38);}.cls-132{fill:#f35825;}.cls-133{fill:url(#linear-gradient-29);}.cls-134{fill:url(#linear-gradient-30);}.cls-135{fill:#8e919a;}.cls-136{fill:url(#linear-gradient-33);opacity:.7;}.cls-27{opacity:.54;}.cls-137{fill:url(#linear-gradient-23);}.cls-138{fill:url(#linear-gradient-19);}.cls-28{opacity:.28;}.cls-29{opacity:.39;}.cls-139{fill:url(#linear-gradient-71);}.cls-140{fill:url(#linear-gradient-4);}.cls-141{fill:url(#linear-gradient-77);}.cls-30{opacity:.09;}.cls-142{fill:url(#linear-gradient-8);}.cls-31{opacity:.19;}.cls-143{fill:url(#linear-gradient-90);}.cls-144{fill:url(#linear-gradient-44);}.cls-145{fill:url(#linear-gradient-57);}.cls-146{fill:url(#linear-gradient-47);}.cls-147{fill:url(#linear-gradient-46);}.cls-148{fill:#ffa907;}.cls-149{fill:url(#linear-gradient-12);}.cls-150{fill:url(#linear-gradient-13);}.cls-151{fill:url(#linear-gradient-26);}.cls-111{stroke:#fff;stroke-linecap:round;stroke-linejoin:round;stroke-width:3px;}</style><linearGradient id="linear-gradient" x1="3720.66" y1="1104.19" x2="3789.66" y2="1102.88" gradientTransform="translate(5216.05 340.44) rotate(-164.11) scale(1 -1)" gradientUnits="userSpaceOnUse"><stop offset="0" stop-color="#4c6fbf"/><stop offset="1" stop-color="#8ca3d8"/></linearGradient><linearGradient id="linear-gradient-2" x1="3682.11" y1="1085.03" x2="3788.78" y2="1085.03" xlink:href="#linear-gradient"/><linearGradient id="linear-gradient-3" x1="3623.71" y1="935.45" x2="3847.18" y2="935.45" gradientTransform="translate(5216.05 340.44) rotate(-164.11) scale(1 -1)" gradientUnits="userSpaceOnUse"><stop offset="0" stop-color="#ffac06"/><stop offset="1" stop-color="#ffd38d"/></linearGradient><linearGradient id="linear-gradient-4" x1="3676.67" y1="1048.47" x2="3794.21" y2="1048.47" gradientTransform="translate(5216.05 340.44) rotate(-164.11) scale(1 -1)" gradientUnits="userSpaceOnUse"><stop offset="0" stop-color="#fff"/><stop offset="1" stop-color="#7590cf"/></linearGradient><clipPath id="clippath"><path class="cls-110" d="M305.66,1304.29l-39.86-23.2c-1.27-.74-2.47-1.62-3.57-2.64l39.86,23.2c1.1,1.02,2.3,1.9,3.57,2.64Z"/></clipPath><clipPath id="clippath-1"><path class="cls-110" d="M397.03,1054.14l39.86,23.2c-1.37-.8-2.84-1.43-4.39-1.9l-39.86-23.2c1.55,.46,3.02,1.1,4.39,1.9Z"/></clipPath><clipPath id="clippath-2"><path class="cls-110" d="M309.15,1265.61l-39.86-23.2c-2.33-3.58-4.23-7.71-5.66-12.36l39.86,23.2c1.42,4.65,3.32,8.78,5.66,12.36Z"/></clipPath><linearGradient id="linear-gradient-5" x1="278.38" y1="1190.82" x2="464.17" y2="1190.82" gradientTransform="matrix(1, 0, 0, 1, 0, 0)" gradientUnits="userSpaceOnUse"><stop offset="0" stop-color="#d1d2d7"/><stop offset="1" stop-color="#f6f6f7"/></linearGradient><clipPath id="clippath-3"><path class="cls-110" d="M112.23,1089.86l-56.12-32.66c-1.79-1.04-3.47-2.28-5.02-3.72l56.12,32.66c1.55,1.43,3.23,2.67,5.02,3.72Z"/></clipPath><clipPath id="clippath-4"><path class="cls-110" d="M240.87,737.69l56.12,32.66c-1.93-1.12-4-2.02-6.18-2.67l-56.12-32.66c2.18,.65,4.25,1.54,6.18,2.67Z"/></clipPath><clipPath id="clippath-5"><path class="cls-110" d="M117.15,1035.39l-56.12-32.66c-3.28-5.04-5.96-10.85-7.96-17.41l56.12,32.66c2,6.55,4.68,12.37,7.96,17.41Z"/></clipPath><linearGradient id="linear-gradient-6" x1="73.83" y1="930.11" x2="335.38" y2="930.11" xlink:href="#linear-gradient-5"/><linearGradient id="linear-gradient-7" x1="1807.47" y1="-336.91" x2="1428.26" y2="-117.59" gradientTransform="translate(297.38 2790.18) rotate(-62.61)" gradientUnits="userSpaceOnUse"><stop offset="0" stop-color="#c2c4c6"/><stop offset="1" stop-color="#fff"/></linearGradient><linearGradient id="linear-gradient-8" x1="1158.08" y1="-183.4" x2="1014.79" y2="-96.64" gradientTransform="translate(24.44 2458.29) rotate(-46.76)" gradientUnits="userSpaceOnUse"><stop offset="0" stop-color="#e5e6e7"/><stop offset="1" stop-color="#fff"/></linearGradient><linearGradient id="linear-gradient-9" x1="1293.79" y1="-135.69" x2="1150.5" y2="-48.94" gradientTransform="translate(-394.92 1804.23) rotate(-10.54)" xlink:href="#linear-gradient-8"/><linearGradient id="linear-gradient-10" x1="1339.43" y1="251.01" x2="1196.14" y2="337.77" gradientTransform="translate(92.78 902) rotate(23.53)" xlink:href="#linear-gradient-8"/><linearGradient id="linear-gradient-11" x1="1426.97" y1="127.03" x2="1283.68" y2="213.79" gradientTransform="translate(-163.23 2096.48) rotate(-31.85)" xlink:href="#linear-gradient-8"/><linearGradient id="linear-gradient-12" x1="1108.85" y1="-103.64" x2="933.37" y2="2.6" gradientTransform="translate(-282.22 1916.76) rotate(-10.54)" xlink:href="#linear-gradient-8"/><linearGradient id="linear-gradient-13" x1="1069.46" y1="59.74" x2="893.99" y2="165.98" gradientTransform="translate(-160.95 1873.86) rotate(-10.54)" xlink:href="#linear-gradient-8"/><linearGradient id="linear-gradient-14" x1="1182.38" y1="61.42" x2="1006.9" y2="167.66" gradientTransform="translate(-206.98 1800.7) rotate(-10.54)" xlink:href="#linear-gradient-8"/><linearGradient id="linear-gradient-15" x1="1265.32" y1="-44.82" x2="1089.84" y2="61.42" gradientTransform="translate(-309.77 1791.82) rotate(-10.54)" xlink:href="#linear-gradient-8"/><linearGradient id="linear-gradient-16" x1="1430.44" y1="-14.97" x2="1254.97" y2="91.27" gradientTransform="translate(-359.51 1673.41) rotate(-10.54)" xlink:href="#linear-gradient-8"/><linearGradient id="linear-gradient-17" x1="1348.4" y1="101.26" x2="1172.92" y2="207.5" gradientTransform="translate(165.32 2545.58) rotate(-55.54)" xlink:href="#linear-gradient-8"/><linearGradient id="linear-gradient-18" x1="1216.04" y1="208.46" x2="1040.56" y2="314.7" gradientTransform="translate(-126.69 1717.75) rotate(-10.54)" xlink:href="#linear-gradient-8"/><linearGradient id="linear-gradient-19" x1="517.78" y1="448.74" x2="305.26" y2="430.26" gradientTransform="matrix(1, 0, 0, 1, 0, 0)" gradientUnits="userSpaceOnUse"><stop offset="0" stop-color="#cdcfd0"/><stop offset="1" stop-color="#fff"/></linearGradient><linearGradient id="linear-gradient-20" x1="404.25" y1="237.52" x2="658.75" y2="190.03" xlink:href="#linear-gradient-19"/><linearGradient id="linear-gradient-21" x1="345.61" y1="579.37" x2="335.39" y2="512.17" gradientTransform="translate(13.61)" xlink:href="#linear-gradient-19"/><linearGradient id="linear-gradient-22" x1="323.41" y1="391.05" x2="313.18" y2="323.85" gradientTransform="translate(13.61)" xlink:href="#linear-gradient-19"/><linearGradient id="linear-gradient-23" x1="747.7" y1="754" x2="962.25" y2="713.97" xlink:href="#linear-gradient-19"/><linearGradient id="linear-gradient-24" x1="722.32" y1="435.6" x2="772.95" y2="348.36" gradientTransform="matrix(1, 0, 0, 1, 0, 0)" gradientUnits="userSpaceOnUse"><stop offset="0" stop-color="#cdcfd0"/><stop offset="1" stop-color="#f6f7f7"/></linearGradient><linearGradient id="linear-gradient-25" x1="818.28" y1="380" x2="887.41" y2="412.45" xlink:href="#linear-gradient-19"/><linearGradient id="linear-gradient-26" x1="630.68" y1="658.68" x2="574.17" y2="287.34" xlink:href="#linear-gradient-19"/><linearGradient id="linear-gradient-27" x1="597.65" y1="370.05" x2="583.51" y2="277.18" xlink:href="#linear-gradient-19"/><linearGradient id="linear-gradient-28" x1="640.86" y1="279.87" x2="514.13" y2="305.41" gradientTransform="matrix(1, 0, 0, 1, 0, 0)" gradientUnits="userSpaceOnUse"><stop offset="0" stop-color="#cdcfd0"/><stop offset="1" stop-color="#b8bbbc"/></linearGradient><linearGradient id="linear-gradient-29" x1="717.23" y1="235.34" x2="802.99" y2="250.57" gradientTransform="translate(-167.32)" gradientUnits="userSpaceOnUse"><stop offset="0" stop-color="#edaeae"/><stop offset="1" stop-color="#ffe9e9"/></linearGradient><linearGradient id="linear-gradient-30" x1="760.78" y1="192.41" x2="852.61" y2="244.89" gradientTransform="translate(-213.24 35.73) rotate(-4.31)" xlink:href="#linear-gradient-29"/><linearGradient id="linear-gradient-31" x1="796.58" y1="256.25" x2="790.27" y2="163.97" gradientTransform="translate(-213.24 35.73) rotate(-4.31)" gradientUnits="userSpaceOnUse"><stop offset="0" stop-color="#525575"/><stop offset="1" stop-color="#2b2e3d"/></linearGradient><linearGradient id="linear-gradient-32" x1="706.39" y1="62.68" x2="443.99" y2="221.54" gradientTransform="matrix(1, 0, 0, 1, 0, 0)" gradientUnits="userSpaceOnUse"><stop offset=".21" stop-color="#cdcfd0"/><stop offset="1" stop-color="#fff"/></linearGradient><linearGradient id="linear-gradient-33" x1="486.63" y1="160.6" x2="718.88" y2="160.6" gradientTransform="matrix(1, 0, 0, 1, 0, 0)" xlink:href="#linear-gradient"/><linearGradient id="linear-gradient-34" x1="470.17" y1="244.62" x2="455.85" y2="150.52" xlink:href="#linear-gradient-19"/><linearGradient id="linear-gradient-35" x1="707.07" y1="547.67" x2="556.62" y2="577.99" xlink:href="#linear-gradient-19"/><linearGradient id="linear-gradient-36" x1="664.16" y1="579.81" x2="630.38" y2="360.23" gradientTransform="matrix(1, 0, 0, 1, 0, 0)" gradientUnits="userSpaceOnUse"><stop offset="0" stop-color="#cdcfd0"/><stop offset="1" stop-color="#e9eaeb"/></linearGradient><linearGradient id="linear-gradient-37" x1="653.12" y1="424.71" x2="578.61" y2="439.73" xlink:href="#linear-gradient-28"/><linearGradient id="linear-gradient-38" x1="633.18" y1="452.7" x2="603.02" y2="458.78" gradientTransform="matrix(1, 0, 0, 1, 0, 0)" xlink:href="#linear-gradient"/><linearGradient id="linear-gradient-39" x1="670.97" y1="368.46" x2="658.35" y2="371" xlink:href="#linear-gradient-28"/><linearGradient id="linear-gradient-40" x1="689.46" y1="357.72" x2="676.85" y2="360.26" gradientTransform="matrix(1, 0, 0, 1, 0, 0)" xlink:href="#linear-gradient"/><linearGradient id="linear-gradient-41" x1="707.96" y1="346.99" x2="695.34" y2="349.53" gradientTransform="matrix(1, 0, 0, 1, 0, 0)" xlink:href="#linear-gradient"/><linearGradient id="linear-gradient-42" x1="670.97" y1="400.4" x2="658.35" y2="402.94" xlink:href="#linear-gradient-28"/><linearGradient id="linear-gradient-43" x1="689.46" y1="389.67" x2="676.85" y2="392.21" xlink:href="#linear-gradient-28"/><linearGradient id="linear-gradient-44" x1="707.96" y1="378.94" x2="695.34" y2="381.48" xlink:href="#linear-gradient-28"/><linearGradient id="linear-gradient-45" x1="670.97" y1="432.35" x2="658.35" y2="434.89" xlink:href="#linear-gradient-28"/><linearGradient id="linear-gradient-46" x1="689.46" y1="421.62" x2="676.85" y2="424.16" gradientTransform="matrix(1, 0, 0, 1, 0, 0)" xlink:href="#linear-gradient-3"/><linearGradient id="linear-gradient-47" x1="707.96" y1="410.88" x2="695.34" y2="413.42" gradientTransform="matrix(1, 0, 0, 1, 0, 0)" xlink:href="#linear-gradient-3"/><linearGradient id="linear-gradient-48" x1="3615.87" y1="532.4" x2="3606.75" y2="472.47" gradientTransform="translate(4309.32) rotate(-180) scale(1 -1)" xlink:href="#linear-gradient-19"/><linearGradient id="linear-gradient-49" x1="885.59" y1="183.02" x2="927.8" y2="244.77" xlink:href="#linear-gradient-24"/><linearGradient id="linear-gradient-50" x1="1195.77" y1="899.66" x2="1195.77" y2="1246.3" gradientTransform="translate(2356.84) rotate(-180) scale(1 -1)" xlink:href="#linear-gradient-3"/><linearGradient id="linear-gradient-51" x1="1160.25" y1="1395.56" x2="1209.05" y2="914.27" gradientTransform="translate(2356.84) rotate(-180) scale(1 -1)" xlink:href="#linear-gradient-3"/><linearGradient id="linear-gradient-52" x1="1006.55" y1="1122.52" x2="785.65" y2="1122.52" gradientTransform="matrix(1, 0, 0, 1, 0, 0)" xlink:href="#linear-gradient"/><linearGradient id="linear-gradient-53" x1="1099.11" y1="587.57" x2="688.62" y2="587.57" gradientTransform="matrix(1, 0, 0, 1, 0, 0)" gradientUnits="userSpaceOnUse"><stop offset=".18" stop-color="#fff"/><stop offset=".5" stop-color="#e1e2e3"/><stop offset="1" stop-color="#9badd7"/></linearGradient><linearGradient id="linear-gradient-54" x1="1008.91" y1="190.43" x2="806.56" y2="190.43" gradientTransform="matrix(1, 0, 0, 1, 0, 0)" gradientUnits="userSpaceOnUse"><stop offset="0" stop-color="#fa8c12"/><stop offset="1" stop-color="#f25227"/></linearGradient><linearGradient id="linear-gradient-55" x1="619.18" y1="899.66" x2="619.18" y2="1246.3" gradientTransform="matrix(1, 0, 0, 1, 0, 0)" xlink:href="#linear-gradient-3"/><linearGradient id="linear-gradient-56" x1="583.66" y1="1395.56" x2="632.46" y2="914.27" gradientTransform="matrix(1, 0, 0, 1, 0, 0)" xlink:href="#linear-gradient-3"/><linearGradient id="linear-gradient-57" x1="1412.97" y1="1017.06" x2="1412.97" y2="1359.68" gradientTransform="translate(2356.84) rotate(-180) scale(1 -1)" xlink:href="#linear-gradient-3"/><linearGradient id="linear-gradient-58" x1="1376.24" y1="1506.9" x2="1424.41" y2="1031.69" gradientTransform="translate(2356.84) rotate(-180) scale(1 -1)" xlink:href="#linear-gradient-3"/><linearGradient id="linear-gradient-59" x1="845.2" y1="641.7" x2="976.54" y2="573.03" gradientTransform="matrix(1, 0, 0, 1, 0, 0)" gradientUnits="userSpaceOnUse"><stop offset="0" stop-color="#fff"/><stop offset="1" stop-color="#e1e2e3"/></linearGradient><linearGradient id="linear-gradient-60" x1="890.02" y1="504.67" x2="972.69" y2="712" xlink:href="#linear-gradient-59"/><linearGradient id="linear-gradient-61" x1="895.92" y1="608.92" x2="1014.55" y2="608.92" gradientTransform="matrix(1, 0, 0, 1, 0, 0)" gradientUnits="userSpaceOnUse"><stop offset="0" stop-color="#4c6fbf"/><stop offset="1" stop-color="#353a7c"/></linearGradient><linearGradient id="linear-gradient-62" x1="1007.29" y1="604.99" x2="846.65" y2="604.99" gradientTransform="matrix(1, 0, 0, 1, 0, 0)" xlink:href="#linear-gradient"/><linearGradient id="linear-gradient-63" x1="937.65" y1="502.86" x2="924.27" y2="502.86" gradientTransform="matrix(1, 0, 0, 1, 0, 0)" xlink:href="#linear-gradient"/><linearGradient id="linear-gradient-64" x1="937.65" y1="712.6" x2="924.27" y2="712.6" gradientTransform="matrix(1, 0, 0, 1, 0, 0)" xlink:href="#linear-gradient"/><linearGradient id="linear-gradient-65" x1="832.57" y1="604.31" x2="819.19" y2="604.31" gradientTransform="matrix(1, 0, 0, 1, 0, 0)" xlink:href="#linear-gradient"/><linearGradient id="linear-gradient-66" x1="1035.57" y1="604.31" x2="1022.19" y2="604.31" gradientTransform="matrix(1, 0, 0, 1, 0, 0)" xlink:href="#linear-gradient"/><linearGradient id="linear-gradient-67" x1="1004.64" y1="524.74" x2="991.26" y2="524.74" gradientTransform="matrix(1, 0, 0, 1, 0, 0)" xlink:href="#linear-gradient"/><linearGradient id="linear-gradient-68" x1="861.14" y1="531.02" x2="847.76" y2="531.02" gradientTransform="matrix(1, 0, 0, 1, 0, 0)" xlink:href="#linear-gradient"/><linearGradient id="linear-gradient-69" x1="1004.64" y1="684.31" x2="991.26" y2="684.31" gradientTransform="matrix(1, 0, 0, 1, 0, 0)" xlink:href="#linear-gradient"/><linearGradient id="linear-gradient-70" x1="861.14" y1="674.3" x2="847.76" y2="674.3" gradientTransform="matrix(1, 0, 0, 1, 0, 0)" xlink:href="#linear-gradient"/><linearGradient id="linear-gradient-71" x1="562.11" y1="445.86" x2="455.69" y2="467.3" xlink:href="#linear-gradient-19"/><linearGradient id="linear-gradient-72" x1="610.7" y1="938.11" x2="796.48" y2="903.45" xlink:href="#linear-gradient-19"/><linearGradient id="linear-gradient-73" x1="639.42" y1="573.65" x2="599.13" y2="622.14" xlink:href="#linear-gradient-19"/><linearGradient id="linear-gradient-74" x1="757.42" y1="649.11" x2="713.43" y2="718.24" xlink:href="#linear-gradient-19"/><linearGradient id="linear-gradient-75" x1="1321.94" y1="1237.6" x2="1321.94" y2="1389.77" gradientTransform="translate(2818.78) rotate(-180) scale(1 -1)" gradientUnits="userSpaceOnUse"><stop offset="0" stop-color="#7590cf"/><stop offset="1" stop-color="#e1e2e3"/></linearGradient><linearGradient id="linear-gradient-76" x1="1314.78" y1="1234.89" x2="1314.78" y2="1403.77" gradientTransform="translate(2818.78) rotate(-180) scale(1 -1)" xlink:href="#linear-gradient-59"/><linearGradient id="linear-gradient-77" x1="1368.65" y1="1252.59" x2="1368.65" y2="1312.25" gradientTransform="translate(2818.78) rotate(-180) scale(1 -1)" xlink:href="#linear-gradient-59"/><linearGradient id="linear-gradient-78" x1="1393.56" y1="1342.13" x2="1393.56" y2="1406.5" xlink:href="#linear-gradient-75"/><linearGradient id="linear-gradient-79" x1="165.21" y1="696.93" x2="263.04" y2="956.95" gradientTransform="translate(1590.79) rotate(-180) scale(1 -1)" xlink:href="#linear-gradient-54"/><linearGradient id="linear-gradient-80" x1="167.5" y1="670.6" x2="128.33" y2="973.64" gradientTransform="translate(1590.79) rotate(-180) scale(1 -1)" gradientUnits="userSpaceOnUse"><stop offset="0" stop-color="#ffac06"/><stop offset="1" stop-color="#f66c1e"/></linearGradient><linearGradient id="linear-gradient-81" x1="164.26" y1="695.6" x2="131.95" y2="945.56" gradientTransform="translate(1590.79) rotate(-180) scale(1 -1)" gradientUnits="userSpaceOnUse"><stop offset="0" stop-color="#f9f9fb"/><stop offset="1" stop-color="#e5e8ef"/></linearGradient><linearGradient id="linear-gradient-82" x1="-252.94" y1="2489.23" x2="-285.25" y2="2739.21" gradientTransform="translate(1231.46 -1231.02) rotate(179.99) scale(.78 -.78) skewX(.01)" xlink:href="#linear-gradient-80"/><linearGradient id="linear-gradient-83" x1="-1007.61" y1="5730.57" x2="-1039.92" y2="5980.55" gradientTransform="translate(864.66 -2485.92) rotate(179.96) scale(.56 -.56) skewX(.04)" xlink:href="#linear-gradient-81"/><linearGradient id="linear-gradient-84" x1="-1013.61" y1="5776.93" x2="-1033.2" y2="5928.49" gradientTransform="translate(864.66 -2485.92) rotate(179.96) scale(.56 -.56) skewX(.04)" xlink:href="#linear-gradient-80"/><linearGradient id="linear-gradient-85" x1="238.06" y1="932.42" x2="94.18" y2="533.73" gradientTransform="translate(1590.79) rotate(-180) scale(1 -1)" gradientUnits="userSpaceOnUse"><stop offset="0" stop-color="#ffb626"/><stop offset="1" stop-color="#ffefd5"/></linearGradient><linearGradient id="linear-gradient-86" x1="-7.08" y1="833.47" x2="-30.35" y2="1013.49" xlink:href="#linear-gradient-80"/><linearGradient id="linear-gradient-87" x1="140.66" y1="837.12" x2="157.36" y2="837.12" xlink:href="#linear-gradient-80"/><linearGradient id="linear-gradient-88" x1="75.8" y1="826.1" x2="102.03" y2="826.1" xlink:href="#linear-gradient-80"/><linearGradient id="linear-gradient-89" x1="116.44" y1="853.81" x2="140.66" y2="853.81" xlink:href="#linear-gradient-80"/><linearGradient id="linear-gradient-90" x1="-138.98" y1="1015.55" x2="33.81" y2="870.49" gradientTransform="translate(1590.79) rotate(-180) scale(1 -1)" xlink:href="#linear-gradient-54"/><linearGradient id="linear-gradient-91" x1="75.8" y1="822.67" x2="101.58" y2="822.67" xlink:href="#linear-gradient-85"/><linearGradient id="linear-gradient-92" x1="-48.21" y1="864.92" x2="157.36" y2="864.92" xlink:href="#linear-gradient-85"/></defs><g class="cls-60"><ellipse class="cls-14" cx="845.49" cy="1797.26" rx="428.06" ry="242.16"/><ellipse class="cls-25" cx="845.49" cy="1797.26" rx="418.62" ry="236.82"/><ellipse class="cls-9" cx="845.49" cy="1797.26" rx="409.18" ry="231.48"/><ellipse class="cls-5" cx="845.49" cy="1797.26" rx="399.74" ry="226.14"/><ellipse class="cls-30" cx="845.49" cy="1797.26" rx="390.3" ry="220.8"/><ellipse class="cls-4" cx="845.49" cy="1797.26" rx="380.86" ry="215.46"/><ellipse class="cls-19" cx="845.49" cy="1797.26" rx="371.42" ry="210.12"/><ellipse class="cls-22" cx="845.49" cy="1797.26" rx="361.99" ry="204.78"/><ellipse class="cls-20" cx="845.49" cy="1797.26" rx="352.55" ry="199.44"/><ellipse class="cls-31" cx="845.49" cy="1797.26" rx="343.11" ry="194.1"/><ellipse class="cls-21" cx="845.49" cy="1797.26" rx="333.67" ry="188.76"/><ellipse class="cls-10" cx="845.49" cy="1797.26" rx="324.23" ry="183.42"/><ellipse class="cls-23" cx="845.49" cy="1797.26" rx="314.79" ry="178.08"/><ellipse class="cls-28" cx="845.49" cy="1797.26" rx="305.35" ry="172.74"/><ellipse class="cls-13" cx="845.49" cy="1797.26" rx="295.91" ry="167.4"/><ellipse class="cls-15" cx="845.49" cy="1797.26" rx="286.47" ry="162.06"/><ellipse class="cls-12" cx="845.49" cy="1797.26" rx="277.03" ry="156.72"/><ellipse class="cls-11" cx="845.49" cy="1797.26" rx="267.59" ry="151.38"/><ellipse class="cls-29" cx="845.49" cy="1797.26" rx="258.15" ry="146.04"/><ellipse class="cls-17" cx="845.49" cy="1797.26" rx="248.71" ry="140.7"/><ellipse class="cls-7" cx="845.49" cy="1797.26" rx="239.27" ry="135.36"/><ellipse class="cls-26" cx="845.49" cy="1797.26" rx="229.83" ry="130.02"/><ellipse class="cls-18" cx="845.49" cy="1797.26" rx="220.39" ry="124.68"/><ellipse class="cls-16" cx="845.49" cy="1797.26" rx="210.95" ry="119.34"/><ellipse class="cls-8" cx="845.49" cy="1797.26" rx="201.51" ry="114"/><ellipse class="cls-27" cx="845.49" cy="1797.26" rx="192.07" ry="108.66"/><ellipse class="cls-6" cx="845.49" cy="1797.26" rx="182.63" ry="103.32"/><ellipse class="cls-24" cx="845.49" cy="1797.26" rx="173.19" ry="97.98"/></g><g><g><g><path class="cls-127" d="M1282.86,386.37s.01-.07,.02-.11c.01-.04,.03-.09,.04-.13l8.55-50.65,77.84,22.15-19.39,47.56s-.02,.09-.03,.14c-.01,.04-.03,.07-.04,.11l-.24,.87-.06-.02c-3.56,8.77-20.2,11.79-38.07,6.71-17.86-5.08-30.42-16.42-28.83-25.75l-.06-.02,.25-.87Z"/><path class="cls-3" d="M1277.32,362.32s0,.08-.02,.13l-.35,1.17,.08,.02c-2.12,12.51,14.71,27.73,38.68,34.55,23.97,6.82,46.29,2.75,51.08-9.01l.08,.02,.31-1.16s.04-.09,.06-.14c.02-.06,.02-.13,.04-.2l20.75-48.78c-11.8,7.38-33.35,8.7-56.08,2.23-22.74-6.47-40.39-18.95-46.51-31.45l-8.04,52.43s-.05,.11-.07,.17Z"/><path class="cls-2" d="M1327.14,358.01c-21.38-6.09-38.1-17.72-44.67-29.65l1.49-9.56c5.94,12.45,23.19,24.81,45.47,31.15,22.27,6.34,43.43,4.91,55.04-2.53l-3.76,8.91c-11.87,6.67-32.2,7.76-53.57,1.68Z"/><path class="cls-2" d="M1322.68,373.71c-20.54-5.79-36.52-17.17-42.72-28.98l1.54-9.55c5.59,12.33,22.08,24.43,43.48,30.46,21.39,6.03,41.78,4.34,53.05-3.21l-3.72,8.92c-11.51,6.79-31.1,8.14-51.63,2.35Z"/><path class="cls-2" d="M1318.21,389.41c-19.72-5.61-35-16.84-40.85-28.56l1.58-9.54c5.26,12.25,21.02,24.19,41.57,30.04,20.54,5.85,40.2,3.99,51.14-3.64l-3.67,8.93c-11.15,6.87-30.04,8.37-49.76,2.76Z"/><path class="cls-124" d="M1264.35,170.48c-9.92,34.85-2.14,70.52,17.97,97.48,4.32,5.76,5.57,13.28,3.6,20.21l-2.24,7.88c-1.24,4.34-.55,9,1.76,13.67,6.12,12.5,23.77,24.97,46.51,31.45,22.73,6.47,44.28,5.15,56.08-2.23,4.43-2.75,7.47-6.35,8.71-10.71l2.24-7.88c1.99-6.99,7.08-12.68,13.84-15.35,32.34-12.77,58.37-40.43,67.47-77.09,14.27-57.45-19.55-116.77-76.24-133.82-59.84-18.01-122.64,16.51-139.69,76.39Z"/><ellipse class="cls-130" cx="1340.2" cy="312.14" rx="30.18" ry="58.77" transform="translate(673.1 1515.69) rotate(-74.11)"/><path class="cls-100" d="M1350.99,313.91c-.78,2.74,2.9,6.2,8.22,7.71s10.27,.52,11.05-2.23c.78-2.74-2.9-6.2-8.22-7.71-5.32-1.51-10.27-.52-11.05,2.23Z"/><path class="cls-100" d="M1311.39,302.63c-.78,2.74,2.9,6.2,8.22,7.71s10.27,.52,11.05-2.23c.78-2.74-2.9-6.2-8.22-7.71s-10.27-.52-11.05,2.23Z"/><path class="cls-111" d="M1360.36,316.57s31.97-135.74,42.4-133.16c10.43,2.58,33.46,49.56-3.05,49.95s-76.35-13.65-78.17-33.41c-1.82-19.77,13.84-32.64,25.7-29.26s-27.11,134.43-27.11,134.43"/><path class="cls-140" d="M1332.57,338.94c30.49,8.68,58.86,3.35,64.41-11.84-.08,.38-.16,.76-.26,1.13-4.56,16.03-33.57,21.82-64.79,12.94-31.22-8.89-52.83-29.08-48.26-45.11,.11-.37,.24-.74,.37-1.1-3.27,15.84,18.04,35.31,48.53,43.98Z"/></g><g class="cls-60"><ellipse class="cls-14" cx="1280" cy="531.02" rx="134.66" ry="76.18"/><path class="cls-25" d="M1148.32,531.02c0,41.14,58.96,74.5,131.69,74.5,72.73,0,131.69-33.35,131.69-74.5s-58.96-74.5-131.69-74.5c-72.73,0-131.69,33.35-131.69,74.5Z"/><ellipse class="cls-9" cx="1280" cy="531.02" rx="128.72" ry="72.82"/><path class="cls-5" d="M1154.26,531.02c0,39.29,56.3,71.14,125.75,71.14,69.45,0,125.75-31.85,125.75-71.14s-56.3-71.14-125.75-71.14c-69.45,0-125.75,31.85-125.75,71.14Z"/><path class="cls-30" d="M1157.23,531.02c0,38.36,54.97,69.46,122.78,69.46,67.81,0,122.78-31.1,122.78-69.46s-54.97-69.46-122.78-69.46c-67.81,0-122.78,31.1-122.78,69.46Z"/><ellipse class="cls-4" cx="1280" cy="531.02" rx="119.81" ry="67.78"/><path class="cls-19" d="M1163.16,531.02c0,36.51,52.31,66.1,116.84,66.1,64.53,0,116.84-29.59,116.84-66.1s-52.31-66.1-116.84-66.1c-64.53,0-116.84,29.59-116.84,66.1Z"/><ellipse class="cls-22" cx="1280" cy="531.02" rx="113.87" ry="64.42"/><ellipse class="cls-20" cx="1280" cy="531.02" rx="110.9" ry="62.74"/><path class="cls-31" d="M1172.07,531.02c0,33.72,48.32,61.06,107.93,61.06s107.93-27.34,107.93-61.06-48.32-61.06-107.93-61.06c-59.61,0-107.93,27.34-107.93,61.06Z"/><ellipse class="cls-21" cx="1280" cy="531.02" rx="104.96" ry="59.38"/><path class="cls-10" d="M1178.01,531.02c0,31.87,45.66,57.7,101.99,57.7s101.99-25.83,101.99-57.7-45.66-57.7-101.99-57.7c-56.33,0-101.99,25.83-101.99,57.7Z"/><ellipse class="cls-23" cx="1280" cy="531.02" rx="99.02" ry="56.02"/><ellipse class="cls-28" cx="1280" cy="531.02" rx="96.05" ry="54.34"/><ellipse class="cls-13" cx="1280" cy="531.02" rx="93.08" ry="52.66"/><ellipse class="cls-15" cx="1280" cy="531.02" rx="90.12" ry="50.98"/><path class="cls-12" d="M1192.86,531.02c0,27.23,39.02,49.3,87.15,49.3s87.15-22.07,87.15-49.3-39.02-49.3-87.15-49.3c-48.13,0-87.15,22.07-87.15,49.3Z"/><ellipse class="cls-11" cx="1280" cy="531.02" rx="84.18" ry="47.62"/><ellipse class="cls-29" cx="1280" cy="531.02" rx="81.21" ry="45.94"/><ellipse class="cls-17" cx="1280" cy="531.02" rx="78.24" ry="44.26"/><ellipse class="cls-7" cx="1280" cy="531.02" rx="75.27" ry="42.58"/><ellipse class="cls-26" cx="1280" cy="531.02" rx="72.3" ry="40.9"/><ellipse class="cls-18" cx="1280" cy="531.02" rx="69.33" ry="39.22"/><ellipse class="cls-16" cx="1280" cy="531.02" rx="66.36" ry="37.54"/><ellipse class="cls-8" cx="1280" cy="531.02" rx="63.39" ry="35.86"/><ellipse class="cls-27" cx="1280" cy="531.02" rx="60.42" ry="34.18"/><ellipse class="cls-6" cx="1280" cy="531.02" rx="57.45" ry="32.5"/><ellipse class="cls-24" cx="1280" cy="531.02" rx="54.48" ry="30.82"/></g></g><g><g class="cls-60"><ellipse class="cls-14" cx="204.61" cy="1344.77" rx="204.61" ry="115.75"/><ellipse class="cls-25" cx="204.61" cy="1344.77" rx="200.1" ry="113.2"/><ellipse class="cls-9" cx="204.61" cy="1344.77" rx="195.58" ry="110.65"/><ellipse class="cls-5" cx="204.61" cy="1344.77" rx="191.07" ry="108.09"/><ellipse class="cls-30" cx="204.61" cy="1344.77" rx="186.56" ry="105.54"/><ellipse class="cls-4" cx="204.61" cy="1344.77" rx="182.05" ry="102.99"/><ellipse class="cls-19" cx="204.61" cy="1344.77" rx="177.54" ry="100.44"/><ellipse class="cls-22" cx="204.61" cy="1344.77" rx="173.02" ry="97.88"/><ellipse class="cls-20" cx="204.61" cy="1344.77" rx="168.51" ry="95.33"/><ellipse class="cls-31" cx="204.61" cy="1344.77" rx="164" ry="92.78"/><ellipse class="cls-21" cx="204.61" cy="1344.77" rx="159.49" ry="90.23"/><ellipse class="cls-10" cx="204.61" cy="1344.77" rx="154.98" ry="87.67"/><ellipse class="cls-23" cx="204.61" cy="1344.77" rx="150.46" ry="85.12"/><ellipse class="cls-28" cx="204.61" cy="1344.77" rx="145.95" ry="82.57"/><ellipse class="cls-13" cx="204.61" cy="1344.77" rx="141.44" ry="80.02"/><ellipse class="cls-15" cx="204.61" cy="1344.77" rx="136.93" ry="77.46"/><ellipse class="cls-12" cx="204.61" cy="1344.77" rx="132.42" ry="74.91"/><ellipse class="cls-11" cx="204.61" cy="1344.77" rx="127.9" ry="72.36"/><ellipse class="cls-29" cx="204.61" cy="1344.77" rx="123.39" ry="69.81"/><ellipse class="cls-17" cx="204.61" cy="1344.77" rx="118.88" ry="67.25"/><ellipse class="cls-7" cx="204.61" cy="1344.77" rx="114.37" ry="64.7"/><ellipse class="cls-26" cx="204.61" cy="1344.77" rx="109.86" ry="62.15"/><ellipse class="cls-18" cx="204.61" cy="1344.77" rx="105.34" ry="59.6"/><ellipse class="cls-16" cx="204.61" cy="1344.77" rx="100.83" ry="57.04"/><ellipse class="cls-8" cx="204.61" cy="1344.77" rx="96.32" ry="54.49"/><ellipse class="cls-27" cx="204.61" cy="1344.77" rx="91.81" ry="51.94"/><ellipse class="cls-6" cx="204.61" cy="1344.77" rx="87.3" ry="49.39"/><ellipse class="cls-24" cx="204.61" cy="1344.77" rx="82.78" ry="46.83"/></g><g><polygon class="cls-112" points="358.77 1303.58 318.9 1280.38 311.48 1257.35 351.34 1280.55 358.77 1303.58"/><polygon class="cls-69" points="439.07 1128.38 399.2 1105.18 422.94 1099.94 462.8 1123.14 439.07 1128.38"/><path class="cls-58" d="M404.68,1179.8c.08-.46,.14-.92,.21-1.38,.03-.22,.07-.43,.1-.65,0-.06,0-.11,.02-.17,.12-.98,.22-1.96,.29-2.93,.01-.21,.03-.41,.04-.62,.06-1,.1-1.99,.09-2.97-.03-10.78-3.83-18.36-9.96-21.93l-39.86-23.2c6.13,3.57,9.93,11.15,9.96,21.93,0,.98-.04,1.97-.1,2.97-.01,.21-.02,.41-.04,.62-.07,.97-.16,1.95-.29,2.93-.03,.27-.08,.55-.11,.82-.06,.46-.13,.92-.21,1.38-.05,.31-.11,.62-.17,.93-.08,.45-.17,.89-.26,1.34-.07,.36-.15,.71-.23,1.07-.07,.3-.13,.6-.21,.9-.09,.39-.19,.78-.29,1.17-.08,.3-.15,.59-.23,.89-.06,.24-.13,.47-.2,.71-.28,.98-.58,1.97-.9,2.95-.02,.07-.05,.15-.07,.22-.32,.95-.66,1.9-1.02,2.85-.09,.24-.18,.47-.27,.71-.31,.8-.64,1.6-.98,2.4-.05,.12-.1,.24-.15,.36-.38,.88-.78,1.76-1.2,2.63-.11,.23-.22,.46-.33,.69-.34,.69-.68,1.38-1.04,2.06-.11,.21-.22,.42-.33,.63-.46,.85-.93,1.7-1.41,2.54-.09,.16-.19,.32-.28,.48-.43,.73-.87,1.45-1.32,2.17-.13,.21-.26,.42-.4,.63-.56,.87-1.14,1.73-1.73,2.58-.09,.13-.18,.26-.28,.39-.62,.87-1.25,1.73-1.9,2.58-.09,.11-.17,.22-.25,.33-.81,1.05-1.65,2.07-2.51,3.06-.11,.13-.22,.26-.34,.39-.53,.61-1.06,1.2-1.61,1.78-.03,.03-.06,.06-.08,.09-.57,.61-1.15,1.2-1.74,1.79-.37,.37-.75,.73-1.13,1.09-.11,.1-.21,.2-.31,.3-.5,.47-1,.92-1.51,1.36-.14,.12-.28,.24-.42,.36-.37,.32-.75,.64-1.12,.95-.19,.15-.38,.3-.57,.46-.33,.27-.67,.53-1.01,.79-.2,.16-.41,.31-.61,.46-.33,.25-.67,.49-1.01,.73-.2,.14-.4,.29-.61,.43-.37,.25-.73,.49-1.1,.73-.17,.11-.35,.23-.52,.34-.54,.34-1.09,.68-1.64,1-.73,.42-1.45,.8-2.16,1.16-.21,.1-.41,.2-.62,.3-.55,.26-1.09,.51-1.63,.74-.19,.08-.38,.17-.57,.25-.51,.21-1.01,.4-1.51,.58-.12,.04-.25,.1-.37,.14-.62,.21-1.23,.4-1.84,.57-.36,.1-.71,.18-1.06,.26-.17,.04-.33,.09-.5,.12-.52,.11-1.03,.21-1.54,.29-.02,0-.04,0-.07,0-.46,.07-.92,.12-1.37,.17-.15,.01-.31,.02-.46,.03-.28,.02-.56,.04-.83,.05-.67,.02-1.33,.02-1.98-.02-.11,0-.22-.02-.33-.03-.52-.04-1.04-.1-1.55-.18-.16-.02-.31-.05-.47-.08-.58-.11-1.15-.23-1.71-.39-.02,0-.05-.02-.07-.02-.53-.16-1.04-.34-1.54-.54-.15-.06-.29-.12-.44-.19-.43-.19-.85-.39-1.26-.62-.14-.07-.28-.14-.41-.22l39.86,23.2c.06,.04,.12,.07,.19,.11,.07,.04,.15,.07,.22,.11,.41,.22,.83,.43,1.26,.62,.08,.04,.15,.08,.23,.11,.07,.03,.14,.04,.2,.07,.5,.2,1.01,.39,1.54,.54,.02,0,.04,.02,.06,.02h.01c.55,.16,1.13,.29,1.71,.4,.07,.01,.13,.03,.2,.05,.09,.02,.18,.02,.27,.03,.51,.08,1.02,.14,1.54,.18,.08,0,.16,.02,.25,.03,.03,0,.06,0,.09,0,.65,.04,1.31,.04,1.98,.02,.07,0,.13,0,.19,0,.21,0,.43-.03,.64-.05,.15-.01,.3-.02,.46-.03,.45-.04,.91-.1,1.37-.17,.02,0,.04,0,.07,0h0c.51-.08,1.02-.18,1.53-.29,.17-.04,.34-.08,.51-.12,.32-.08,.64-.15,.96-.23,.03,0,.06-.02,.09-.03,.61-.17,1.22-.36,1.84-.57,.12-.04,.25-.09,.37-.14,.5-.18,1-.37,1.51-.57,.07-.03,.13-.05,.2-.08,.12-.05,.25-.12,.37-.17,.54-.23,1.08-.48,1.63-.74,.21-.1,.41-.2,.62-.3,.72-.36,1.44-.74,2.16-1.16,.55-.32,1.09-.65,1.64-.99,.18-.11,.35-.23,.53-.34,.37-.24,.73-.48,1.1-.73,.2-.14,.41-.28,.61-.43,.34-.24,.67-.48,1.01-.73,.2-.15,.41-.31,.61-.46,.34-.26,.67-.52,1-.79,.19-.15,.38-.3,.57-.46,.38-.31,.75-.63,1.13-.95,.14-.12,.27-.23,.41-.35,.51-.44,1.01-.9,1.51-1.37,.11-.1,.21-.21,.32-.31,.33-.31,.66-.62,.98-.94,.05-.05,.09-.1,.14-.15,.59-.58,1.17-1.18,1.74-1.79,.02-.02,.04-.05,.07-.07,.55-.59,1.09-1.19,1.63-1.8,.05-.06,.1-.11,.15-.17,.06-.07,.12-.15,.19-.23,.86-1,1.7-2.02,2.51-3.07,.02-.03,.05-.06,.07-.09,.06-.08,.12-.17,.18-.25,.65-.85,1.28-1.71,1.9-2.58,.06-.09,.13-.17,.19-.26,.03-.04,.05-.08,.08-.12,.59-.85,1.17-1.71,1.73-2.58,.05-.08,.11-.16,.17-.25,.08-.13,.15-.26,.23-.38,.45-.72,.89-1.44,1.32-2.17,.07-.12,.14-.23,.21-.34,.03-.04,.05-.09,.08-.13,.49-.84,.96-1.69,1.41-2.54,.04-.07,.08-.14,.11-.21,.07-.14,.14-.29,.22-.43,.36-.68,.7-1.37,1.04-2.06,.07-.14,.15-.28,.21-.42,.04-.09,.08-.17,.12-.26,.42-.87,.82-1.75,1.2-2.63,.01-.03,.03-.05,.04-.08,.04-.1,.08-.19,.12-.29,.34-.79,.66-1.59,.98-2.39,.05-.13,.11-.26,.16-.39,.04-.11,.08-.22,.12-.33,.36-.95,.7-1.9,1.02-2.85,0-.02,.01-.04,.02-.05,.02-.06,.03-.11,.05-.17,.32-.98,.62-1.96,.9-2.95,.03-.12,.08-.25,.11-.37,.03-.12,.06-.23,.09-.35,.08-.29,.15-.59,.23-.88,.1-.39,.2-.78,.29-1.18,.07-.3,.14-.6,.2-.9,.05-.21,.1-.42,.14-.63,.03-.15,.05-.3,.09-.45,.09-.45,.18-.89,.26-1.34,.06-.31,.11-.62,.17-.93Z"/><g class="cls-59"><g class="cls-105"><g class="cls-59"><path class="cls-58" d="M305.66,1304.29l-39.86-23.2c-1.27-.74-2.47-1.62-3.57-2.64l39.86,23.2c1.1,1.02,2.3,1.9,3.57,2.64"/></g></g></g><g class="cls-59"><g class="cls-77"><g class="cls-59"><path class="cls-67" d="M432.51,1075.44l-39.86-23.2c.7,.21,1.39,.46,2.06,.74l39.86,23.2c-.67-.28-1.36-.53-2.06-.74"/><path class="cls-109" d="M434.57,1076.18l-39.86-23.2c.72,.3,1.42,.65,2.1,1.03l39.86,23.2c-.68-.38-1.38-.73-2.1-1.03"/><path class="cls-80" d="M436.67,1077.21l-39.86-23.2c.08,.04,.15,.09,.23,.13l39.86,23.2c-.08-.04-.15-.09-.23-.13"/></g></g></g><polygon class="cls-112" points="302.09 1301.65 262.23 1278.46 257.79 1274.37 297.66 1297.57 302.09 1301.65"/><polygon class="cls-135" points="426.73 1073.7 386.87 1050.5 392.64 1052.24 432.51 1075.44 426.73 1073.7"/><polygon class="cls-69" points="297.66 1297.57 257.79 1274.37 269.29 1242.41 309.15 1265.61 297.66 1297.57"/><polygon class="cls-69" points="404.8 1099.71 364.93 1076.51 386.87 1050.5 426.73 1073.7 404.8 1099.71"/><g class="cls-59"><g class="cls-56"><g class="cls-59"><path class="cls-58" d="M309.15,1265.61l-39.86-23.2c-2.33-3.58-4.23-7.71-5.66-12.36l39.86,23.2c1.42,4.65,3.32,8.78,5.66,12.36"/></g></g></g><path class="cls-86" d="M395.03,1100.32c1-.16,1.99-.3,2.97-.4,.07,0,.15-.02,.22-.03,1.05-.1,2.08-.17,3.09-.2,.19,0,.37,0,.56-.01,.99-.02,1.97-.02,2.93,.02l-39.86-23.2c-.96-.04-1.94-.05-2.93-.02-.19,0-.37,0-.56,.01-.15,0-.3,0-.46,0-.87,.04-1.75,.1-2.64,.19-.07,0-.15,.02-.22,.03-.79,.08-1.59,.18-2.4,.3-.19,.03-.38,.07-.57,.1-.22,.04-.44,.08-.66,.11-1.04,.18-2.09,.39-3.15,.64l39.86,23.2c1.06-.25,2.11-.46,3.15-.64,.22-.04,.44-.08,.66-.11Z"/><path class="cls-55" d="M304.72,1201.33c.28-1.04,.56-2.07,.86-3.11,.13-.44,.25-.88,.38-1.32,.39-1.29,.79-2.58,1.22-3.87,.04-.13,.08-.26,.12-.39,.52-1.55,1.06-3.1,1.63-4.64l-39.86-23.2c-.56,1.52-1.09,3.04-1.6,4.56,0,.03-.02,.05-.03,.08-.04,.12-.08,.25-.12,.37-.43,1.29-.83,2.59-1.22,3.89-.13,.44-.26,.87-.38,1.31-.15,.51-.3,1.02-.44,1.52-.15,.53-.28,1.06-.42,1.59-.11,.42-.23,.84-.33,1.27-.36,1.42-.71,2.83-1.02,4.25l39.86,23.2c.31-1.41,.66-2.83,1.02-4.24,.11-.42,.22-.85,.34-1.27Z"/><path class="cls-126" d="M342.36,1132.98c.42-.46,.84-.93,1.26-1.38,1-1.07,2.02-2.11,3.05-3.14,.21-.21,.42-.44,.64-.65,1.18-1.17,2.38-2.31,3.58-3.42l-39.86-23.2c-1.21,1.11-2.4,2.26-3.58,3.42-.02,.02-.04,.04-.06,.06-.19,.19-.38,.4-.57,.59-1.03,1.03-2.05,2.07-3.05,3.14-.42,.45-.84,.92-1.26,1.37-.78,.85-1.56,1.71-2.33,2.58-.15,.18-.32,.34-.47,.52-.75,.86-1.49,1.73-2.22,2.61l39.86,23.2c.88-1.06,1.78-2.1,2.69-3.14,.76-.87,1.54-1.73,2.32-2.58Z"/><polygon class="cls-69" points="279.67 1229.02 239.81 1205.82 263.5 1183.64 303.36 1206.84 279.67 1229.02"/><path class="cls-64" d="M278.77,1250.76c-.51-3.99-.52-8.33-.04-12.91l.94-8.83-39.87-23.2-.94,8.83c-.49,4.58-.47,8.91,.04,12.91l.98,7.73,39.86,23.2-.98-7.73Z"/><path class="cls-69" d="M343.92,1054.85l-7.2,3.06c-1.86,.79-3.74,1.73-5.61,2.81-1.87,1.08-3.75,2.31-5.6,3.67l-7.2,5.26,39.86,23.2,7.2-5.26c1.86-1.36,3.73-2.59,5.6-3.67,1.87-1.08,3.75-2.02,5.61-2.81l7.2-3.06-39.86-23.2Z"/><polygon class="cls-72" points="350.9 1124.39 311.03 1101.19 318.31 1069.66 358.17 1092.86 350.9 1124.39"/><polygon class="cls-112" points="308.93 1188 269.07 1164.8 257.43 1146.2 297.3 1169.4 308.93 1188"/><polygon class="cls-42" points="315.35 1138.09 275.49 1114.89 297.49 1115.5 337.35 1138.7 315.35 1138.09"/><path class="cls-69" d="M304.4,1154.98c.36-.66,.72-1.32,1.1-1.98,.28-.49,.58-.96,.87-1.45,.41-.68,.81-1.36,1.24-2.03,.65-1.02,1.3-2.03,1.98-3.02l5.76-8.41-39.86-23.2-5.76,8.41c-.62,.9-1.22,1.82-1.81,2.74-.06,.09-.11,.19-.17,.28-.42,.67-.83,1.35-1.24,2.03-.25,.41-.51,.82-.76,1.24-.04,.07-.08,.14-.12,.21-.38,.65-.74,1.32-1.1,1.98-.25,.46-.52,.91-.76,1.37-.03,.05-.05,.11-.08,.16-.36,.68-.7,1.38-1.05,2.07-.23,.46-.48,.92-.7,1.39-.04,.08-.08,.16-.12,.25l-4.39,9.18,39.87,23.2,4.39-9.18c.26-.55,.55-1.09,.82-1.63,.35-.69,.69-1.39,1.05-2.07,.27-.52,.56-1.02,.85-1.54Z"/><path class="cls-98" d="M463.78,1130.87c.51,4,.52,8.34,.04,12.91l-.93,8.84-23.69,22.17c-1.39,6.28-3.26,12.59-5.57,18.86l11.63,18.59-4.39,9.19c-2.27,4.75-4.93,9.36-7.9,13.71l-5.75,8.41-22.01-.6c-4.26,5.14-8.8,9.93-13.54,14.3l-7.28,31.54-7.19,5.26c-1.86,1.36-3.74,2.59-5.61,3.67-1.87,1.08-3.75,2.02-5.61,2.81l-7.2,3.06-7.43-23.03c-4.76,1.13-9.3,1.58-13.58,1.38l-21.93,26-5.79-1.74c-2.99-.9-5.66-2.43-7.96-4.54l-4.43-4.09,11.49-31.96c-2.33-3.58-4.23-7.71-5.66-12.36l-23.74,5.25-.98-7.73c-.51-3.99-.52-8.33-.04-12.91l.94-8.83,23.69-22.18c1.39-6.27,3.26-12.59,5.57-18.84l-11.64-18.6,4.39-9.18c2.27-4.75,4.93-9.37,7.9-13.71l5.76-8.41,22,.61c4.27-5.14,8.8-9.94,13.55-14.31l7.27-31.54,7.2-5.26c1.86-1.36,3.73-2.59,5.6-3.67,1.87-1.08,3.75-2.02,5.61-2.81l7.2-3.06,7.44,23.03c4.75-1.12,9.3-1.57,13.57-1.37l21.93-26.01,5.78,1.75c2.99,.89,5.67,2.42,7.96,4.54l4.43,4.08-11.49,31.97c2.34,3.57,4.24,7.7,5.66,12.35l23.74-5.24,.98,7.73Zm-92.39,99.24c18.86-10.9,34.09-37.33,34.03-59.03-.06-21.7-15.39-30.45-34.25-19.55-18.85,10.9-34.08,37.32-34.02,59.02,.06,21.69,15.39,30.45,34.24,19.55"/></g><g><polygon class="cls-112" points="187 1088.85 130.88 1056.19 120.42 1023.77 176.54 1056.43 187 1088.85"/><polygon class="cls-69" points="300.04 842.21 243.92 809.55 277.34 802.18 333.46 834.84 300.04 842.21"/><path class="cls-58" d="M251.63,914.59c.11-.65,.2-1.29,.29-1.94,.04-.3,.1-.61,.14-.92,.01-.08,.01-.16,.02-.24,.17-1.38,.31-2.76,.4-4.13,.02-.29,.04-.58,.05-.87,.08-1.4,.14-2.8,.13-4.18-.04-15.18-5.39-25.85-14.02-30.87l-56.12-32.66c8.63,5.02,13.98,15.7,14.02,30.87,0,1.38-.05,2.78-.13,4.18-.02,.29-.03,.58-.05,.87-.1,1.37-.23,2.74-.4,4.13-.05,.38-.11,.77-.16,1.15-.09,.65-.18,1.29-.29,1.94-.07,.44-.15,.87-.23,1.31-.11,.63-.23,1.26-.36,1.89-.1,.5-.21,1-.32,1.5-.09,.42-.19,.84-.29,1.26-.13,.55-.27,1.1-.41,1.65-.11,.42-.21,.83-.33,1.25-.09,.33-.19,.66-.28,1-.39,1.39-.81,2.77-1.27,4.15-.03,.1-.06,.21-.1,.31-.45,1.34-.93,2.68-1.44,4.01-.13,.33-.26,.67-.39,1-.44,1.13-.9,2.26-1.38,3.38-.07,.17-.14,.34-.22,.51-.54,1.24-1.11,2.47-1.69,3.7-.15,.32-.31,.64-.47,.97-.48,.97-.96,1.94-1.47,2.9-.15,.29-.3,.59-.46,.88-.64,1.2-1.31,2.4-1.99,3.58-.13,.23-.27,.45-.4,.67-.6,1.03-1.22,2.04-1.86,3.05-.19,.3-.37,.59-.56,.89-.79,1.23-1.6,2.44-2.43,3.63-.13,.18-.26,.36-.39,.54-.87,1.23-1.76,2.44-2.67,3.63-.12,.16-.24,.32-.36,.47-1.15,1.48-2.33,2.91-3.54,4.31-.16,.18-.31,.37-.47,.55-.74,.85-1.5,1.69-2.27,2.51-.04,.04-.08,.09-.12,.13-.8,.86-1.62,1.69-2.45,2.52-.53,.52-1.06,1.03-1.59,1.54-.15,.14-.29,.29-.44,.42-.7,.65-1.41,1.29-2.12,1.92-.19,.17-.39,.33-.59,.5-.52,.45-1.05,.9-1.58,1.33-.26,.22-.53,.43-.8,.64-.47,.38-.94,.75-1.42,1.11-.29,.22-.57,.43-.86,.65-.47,.35-.94,.69-1.42,1.03-.28,.2-.57,.4-.85,.6-.51,.35-1.03,.7-1.55,1.03-.24,.16-.49,.32-.73,.48-.77,.48-1.53,.95-2.31,1.4-1.02,.59-2.04,1.13-3.04,1.64-.29,.15-.58,.29-.87,.43-.77,.37-1.53,.72-2.29,1.05-.27,.12-.54,.24-.8,.35-.72,.29-1.42,.56-2.13,.81-.17,.06-.35,.13-.52,.19-.87,.3-1.74,.57-2.59,.8-.5,.14-1,.26-1.5,.37-.23,.05-.47,.12-.7,.17-.73,.16-1.46,.29-2.17,.4-.03,0-.06,0-.09,.01-.65,.1-1.29,.17-1.93,.23-.22,.02-.43,.03-.65,.05-.39,.03-.79,.05-1.17,.06-.94,.03-1.87,.03-2.78-.02-.16,0-.31-.03-.47-.04-.74-.06-1.46-.14-2.18-.25-.22-.04-.44-.07-.66-.11-.82-.15-1.62-.33-2.4-.55-.03-.01-.07-.02-.1-.03-.74-.22-1.46-.48-2.17-.77-.21-.08-.41-.17-.61-.26-.6-.26-1.2-.55-1.77-.87-.19-.1-.39-.19-.58-.3l56.12,32.66c.09,.05,.18,.1,.26,.15,.1,.06,.21,.1,.31,.15,.58,.31,1.17,.6,1.77,.87,.11,.05,.22,.11,.33,.16,.09,.04,.19,.06,.28,.1,.71,.29,1.43,.55,2.17,.77,.03,0,.06,.02,.09,.03h.01c.79,.23,1.59,.41,2.41,.56,.1,.02,.19,.05,.28,.06,.13,.02,.26,.03,.38,.05,.71,.11,1.44,.2,2.17,.25,.12,0,.23,.03,.35,.04,.04,0,.08,0,.12,0,.91,.05,1.84,.06,2.78,.02,.09,0,.18,0,.27,0,.3-.01,.6-.04,.9-.07,.22-.02,.43-.03,.65-.05,.64-.06,1.28-.14,1.93-.23,.03,0,.06,0,.09-.01h.01c.71-.11,1.43-.25,2.16-.4,.24-.05,.48-.12,.71-.17,.45-.11,.9-.21,1.35-.33,.04-.01,.09-.03,.13-.04,.86-.24,1.72-.5,2.59-.8,.17-.06,.35-.13,.53-.2,.7-.25,1.41-.52,2.12-.81,.09-.04,.19-.07,.28-.11,.17-.07,.35-.16,.52-.24,.76-.33,1.52-.67,2.29-1.05,.29-.14,.58-.28,.87-.43,1.01-.51,2.02-1.05,3.04-1.64,.77-.45,1.54-.92,2.3-1.4,.25-.16,.5-.32,.74-.49,.52-.34,1.03-.68,1.54-1.03,.29-.2,.57-.4,.86-.6,.47-.34,.95-.68,1.42-1.03,.29-.21,.58-.43,.86-.65,.47-.36,.94-.73,1.41-1.11,.27-.22,.54-.43,.81-.65,.53-.44,1.06-.89,1.59-1.34,.19-.16,.38-.32,.57-.49,.71-.63,1.42-1.27,2.12-1.92,.15-.14,.3-.29,.45-.44,.46-.44,.92-.87,1.38-1.32,.07-.07,.13-.14,.2-.21,.83-.82,1.65-1.66,2.45-2.52,.03-.03,.06-.07,.09-.1,.77-.83,1.54-1.68,2.29-2.54,.07-.08,.14-.16,.21-.24,.09-.1,.17-.21,.26-.32,1.21-1.4,2.39-2.84,3.54-4.32,.03-.04,.07-.08,.1-.12,.09-.11,.17-.23,.25-.35,.91-1.19,1.81-2.4,2.68-3.64,.09-.12,.18-.24,.27-.36,.04-.06,.08-.12,.12-.18,.83-1.19,1.64-2.41,2.43-3.64,.08-.12,.16-.23,.23-.35,.11-.18,.22-.36,.33-.54,.63-1.01,1.26-2.02,1.86-3.05,.1-.16,.2-.32,.3-.48,.04-.06,.07-.13,.11-.19,.68-1.18,1.35-2.37,1.99-3.57,.05-.1,.11-.19,.16-.29,.11-.2,.2-.4,.3-.6,.5-.96,.99-1.93,1.47-2.9,.1-.2,.21-.4,.3-.6,.06-.12,.11-.24,.17-.36,.58-1.23,1.15-2.46,1.69-3.7,.02-.04,.04-.08,.05-.12,.06-.13,.11-.27,.16-.4,.48-1.12,.94-2.24,1.37-3.37,.07-.18,.15-.36,.22-.55,.06-.15,.11-.31,.16-.46,.5-1.33,.99-2.67,1.44-4.01,0-.03,.02-.05,.03-.08,.03-.08,.05-.16,.07-.24,.46-1.38,.87-2.77,1.27-4.15,.05-.17,.11-.35,.16-.52,.04-.16,.08-.32,.13-.49,.11-.41,.22-.83,.32-1.24,.14-.55,.28-1.1,.41-1.65,.1-.42,.19-.84,.29-1.26,.07-.29,.14-.59,.2-.88,.04-.21,.08-.42,.12-.63,.13-.63,.25-1.25,.36-1.88,.08-.44,.16-.88,.23-1.31Z"/><g class="cls-59"><g class="cls-115"><g class="cls-59"><path class="cls-58" d="M112.23,1089.86l-56.12-32.66c-1.79-1.04-3.47-2.28-5.02-3.72l56.12,32.66c1.55,1.43,3.23,2.67,5.02,3.72"/></g></g></g><g class="cls-59"><g class="cls-78"><g class="cls-59"><path class="cls-67" d="M290.81,767.69l-56.12-32.66c.99,.3,1.96,.64,2.9,1.04l56.12,32.66c-.94-.39-1.91-.74-2.9-1.04"/><path class="cls-109" d="M293.71,768.72l-56.12-32.66c1.02,.43,2,.91,2.96,1.45l56.12,32.66c-.95-.54-1.94-1.02-2.96-1.45"/><path class="cls-80" d="M296.66,770.17l-56.12-32.66c.11,.06,.22,.12,.32,.19l56.12,32.66c-.11-.06-.22-.12-.32-.19"/></g></g></g><polygon class="cls-112" points="107.21 1086.14 51.09 1053.48 44.85 1047.72 100.97 1080.38 107.21 1086.14"/><polygon class="cls-135" points="282.67 765.23 226.55 732.57 234.69 735.03 290.81 767.69 282.67 765.23"/><polygon class="cls-69" points="100.97 1080.38 44.85 1047.72 61.03 1002.73 117.15 1035.39 100.97 1080.38"/><polygon class="cls-69" points="251.8 801.84 195.68 769.18 226.55 732.57 282.67 765.23 251.8 801.84"/><g class="cls-59"><g class="cls-125"><g class="cls-59"><path class="cls-58" d="M117.15,1035.39l-56.12-32.66c-3.28-5.04-5.96-10.85-7.96-17.41l56.12,32.66c2,6.55,4.68,12.37,7.96,17.41"/></g></g></g><path class="cls-86" d="M238.04,802.71c1.41-.23,2.8-.42,4.18-.57,.1-.01,.2-.03,.31-.04,1.47-.15,2.92-.23,4.36-.28,.26,0,.52-.01,.79-.02,1.39-.03,2.77-.03,4.12,.03l-56.12-32.66c-1.35-.06-2.73-.06-4.12-.04-.26,0-.52,0-.79,.02-.22,0-.43,0-.64,.01-1.22,.05-2.46,.14-3.71,.27-.1,.01-.2,.03-.31,.04-1.12,.12-2.24,.25-3.38,.43-.27,.04-.53,.1-.8,.14-.31,.05-.62,.11-.93,.16-1.46,.26-2.94,.55-4.43,.9l56.12,32.66c1.49-.35,2.97-.64,4.43-.9,.31-.05,.62-.11,.93-.16Z"/><path class="cls-55" d="M110.91,944.9c.39-1.46,.79-2.92,1.21-4.38,.18-.62,.36-1.24,.54-1.85,.55-1.82,1.11-3.64,1.71-5.45,.06-.18,.11-.37,.18-.55,.73-2.18,1.49-4.36,2.29-6.54l-56.12-32.66c-.79,2.14-1.54,4.28-2.26,6.43-.01,.04-.02,.07-.04,.11-.06,.18-.11,.35-.17,.53-.6,1.82-1.17,3.65-1.72,5.47-.18,.61-.36,1.23-.54,1.84-.21,.72-.43,1.43-.63,2.14-.21,.75-.39,1.5-.59,2.24-.16,.59-.32,1.19-.47,1.78-.51,1.99-1,3.99-1.44,5.98l56.12,32.66c.44-1.99,.93-3.98,1.44-5.97,.15-.6,.31-1.2,.47-1.79Z"/><path class="cls-126" d="M163.91,848.69c.59-.65,1.18-1.31,1.78-1.94,1.41-1.5,2.85-2.97,4.29-4.42,.3-.3,.59-.62,.9-.92,1.66-1.64,3.34-3.25,5.05-4.82l-56.12-32.66c-1.7,1.57-3.38,3.18-5.05,4.82-.03,.03-.06,.06-.09,.08-.27,.27-.53,.56-.81,.83-1.45,1.45-2.88,2.92-4.29,4.42-.6,.64-1.18,1.29-1.77,1.94-1.1,1.2-2.2,2.41-3.28,3.64-.22,.25-.44,.48-.66,.73-1.05,1.21-2.09,2.44-3.12,3.68l56.12,32.66c1.24-1.5,2.51-2.96,3.79-4.42,1.08-1.23,2.17-2.43,3.27-3.63Z"/><polygon class="cls-69" points="75.65 983.89 19.53 951.23 52.88 920.01 109 952.67 75.65 983.89"/><path class="cls-64" d="M74.39,1014.49c-.72-5.62-.74-11.73-.05-18.17l1.32-12.44-56.12-32.66-1.32,12.44c-.68,6.44-.67,12.55,.05,18.17l1.39,10.88,56.12,32.66-1.39-10.88Z"/><path class="cls-69" d="M166.1,738.69l-10.13,4.31c-2.62,1.11-5.26,2.44-7.9,3.96-2.64,1.52-5.27,3.25-7.89,5.17l-10.13,7.41,56.12,32.66,10.13-7.41c2.62-1.92,5.25-3.64,7.89-5.17,2.64-1.52,5.28-2.85,7.9-3.96l10.13-4.31-56.12-32.66Z"/><polygon class="cls-72" points="175.92 836.59 119.8 803.94 130.04 759.54 186.16 792.2 175.92 836.59"/><polygon class="cls-112" points="116.84 926.14 60.72 893.48 44.34 867.3 100.46 899.96 116.84 926.14"/><polygon class="cls-42" points="125.88 855.88 69.76 823.22 100.73 824.08 156.85 856.74 125.88 855.88"/><path class="cls-69" d="M110.47,879.65c.51-.93,1.02-1.86,1.55-2.78,.4-.69,.82-1.36,1.23-2.04,.58-.96,1.15-1.91,1.74-2.86,.91-1.43,1.83-2.85,2.79-4.25l8.1-11.85-56.12-32.66-8.1,11.85c-.87,1.27-1.72,2.56-2.55,3.86-.08,.13-.16,.26-.24,.39-.6,.94-1.17,1.9-1.74,2.86-.35,.58-.72,1.15-1.06,1.74-.06,.1-.11,.2-.16,.29-.53,.92-1.03,1.85-1.55,2.78-.36,.65-.73,1.28-1.08,1.93-.04,.08-.08,.15-.12,.23-.51,.96-.99,1.94-1.47,2.92-.33,.65-.67,1.29-.99,1.95-.06,.12-.11,.23-.17,.35l-6.19,12.93,56.12,32.66,6.19-12.93c.37-.77,.77-1.53,1.15-2.3,.49-.97,.97-1.95,1.48-2.92,.38-.73,.79-1.44,1.19-2.16Z"/><path class="cls-54" d="M334.83,845.71c.72,5.63,.74,11.74,.05,18.17l-1.31,12.44-33.35,31.21c-1.96,8.85-4.59,17.73-7.85,26.55l16.38,26.17-6.19,12.94c-3.19,6.68-6.94,13.18-11.13,19.3l-8.09,11.84-30.98-.85c-6,7.23-12.39,13.98-19.06,20.13l-10.25,44.4-10.12,7.41c-2.62,1.92-5.26,3.65-7.9,5.17-2.64,1.52-5.27,2.85-7.89,3.96l-10.14,4.31-10.46-32.43c-6.7,1.59-13.09,2.23-19.12,1.95l-30.87,36.61-8.14-2.45c-4.21-1.27-7.97-3.42-11.2-6.39l-6.24-5.76,16.18-44.99c-3.28-5.04-5.96-10.85-7.96-17.41l-33.41,7.39-1.39-10.88c-.72-5.62-.74-11.73-.05-18.17l1.32-12.44,33.35-31.22c1.96-8.83,4.59-17.73,7.84-26.53l-16.38-26.18,6.19-12.93c3.2-6.69,6.94-13.19,11.13-19.3l8.1-11.85,30.97,.85c6.01-7.24,12.39-13.99,19.07-20.14l10.24-44.4,10.13-7.41c2.62-1.92,5.25-3.64,7.89-5.17,2.64-1.52,5.28-2.85,7.9-3.96l10.13-4.31,10.47,32.42c6.69-1.58,13.09-2.21,19.11-1.93l30.88-36.61,8.13,2.46c4.21,1.26,7.98,3.41,11.2,6.39l6.24,5.74-16.18,45c3.29,5.02,5.97,10.85,7.97,17.39l33.41-7.38,1.38,10.88Zm-130.07,139.7c26.55-15.35,47.99-52.56,47.91-83.09-.09-30.55-21.67-42.87-48.22-27.52-26.54,15.34-47.98,52.54-47.9,83.09,.09,30.54,21.67,42.87,48.21,27.52"/></g></g><g><path class="cls-116" d="M963.56,1104.03h-168.19l-3.84,379.59c-20.08,1.35-39,12.78-48.94,31.96-4.49,8.66-6.59,17.9-6.64,27.02-18.69,2.43-35.93,13.63-45.26,31.63-11.65,22.47-7.53,48.9,8.27,66.8-14.95,4.45-28.15,14.69-35.89,29.63-2.78,5.37-4.65,10.97-5.7,16.62-28.78-13.47-63.3-1.99-78.06,26.48-15.13,29.2-3.73,65.14,25.47,80.28,29.2,15.13,65.14,3.73,80.28-25.47,2.78-5.37,4.65-10.97,5.7-16.63,28.78,13.47,63.3,1.99,78.06-26.48,11.65-22.47,7.53-48.9-8.27-66.8,14.95-4.45,28.15-14.69,35.89-29.63,4.49-8.66,6.59-17.9,6.64-27.02,18.69-2.43,35.93-13.63,45.26-31.63,4.26-8.22,6.34-16.96,6.6-25.63,1.84,1.23,3.75,2.4,5.77,3.44,19.43,10.07,41.82,8.33,59.1-2.52-8.1,26.9,3.76,56.59,29.61,69.98,19.57,10.14,42.14,8.32,59.47-2.75-2.17,2.8-4.15,5.8-5.84,9.06-11.62,22.42-7.55,48.78,8.16,66.68-16.75,3.62-31.81,14.41-40.31,30.81-15.13,29.2-3.73,65.14,25.47,80.28,13.12,6.8,27.58,8.2,40.92,5.08,3.33,17.29,14.2,32.94,31.04,41.67,29.2,15.13,65.14,3.73,80.28-25.47,15.13-29.2,3.73-65.14-25.47-80.28-13.12-6.8-27.58-8.2-40.92-5.08-1.99-10.32-6.68-20.04-13.73-28.07,16.75-3.62,31.81-14.41,40.31-30.81,15.13-29.2,3.73-65.14-25.47-80.28-19.57-10.14-42.14-8.32-59.47,2.75,2.17-2.8,4.15-5.8,5.84-9.06,15.13-29.2,3.73-65.14-25.47-80.28-4.76-2.47-9.7-4.21-14.7-5.3l-25.97-400.58Z"/><g><circle class="cls-142" cx="663.95" cy="1583.53" r="87.54" transform="translate(-233.71 119.77) rotate(-8.77)"/><circle class="cls-120" cx="780.08" cy="1498.63" r="87.54" transform="translate(-831.22 990.54) rotate(-45)"/><circle class="cls-79" cx="1124.74" cy="1679.84" r="87.54" transform="translate(-737.91 2465.62) rotate(-79.07)"/><circle class="cls-70" cx="1072.06" cy="1537.5" r="87.54" transform="translate(-527.28 560.08) rotate(-23.68)"/><circle class="cls-149" cx="700.6" cy="1690.95" r="107.2" transform="translate(-990.48 990.67) rotate(-45)"/><circle class="cls-150" cx="813.02" cy="1815.87" r="107.2" transform="translate(-1045.89 1106.75) rotate(-45)"/><circle class="cls-50" cx="878.31" cy="1723.73" r="107.2" transform="translate(-961.61 1125.93) rotate(-45)"/><circle class="cls-40" cx="837.64" cy="1595.22" r="107.2" transform="translate(-882.65 1059.53) rotate(-45)"/><circle class="cls-85" cx="955.7" cy="1475.97" r="107.2" transform="translate(-763.75 1108.09) rotate(-45)"/><circle class="cls-35" cx="1005.1" cy="1609.39" r="107.2"/><circle class="cls-45" cx="1018.59" cy="1779.18" r="107.2" transform="translate(-959.73 1241.36) rotate(-45)"/></g></g><g><g><path class="cls-138" d="M301.29,252.39s2.05,265.14,34.25,313.94c32.21,48.8,100.95,71.25,151.98,61.49,51.03-9.76,31.94-365.57,31.94-365.57l-218.17-9.85Z"/><path class="cls-53" d="M540.23,130.1s-229.71,102.79-238.33,117.03c-8.62,14.24,75.42,75.59,133.04,66.67,57.62-8.92,223.69-109,223.69-109l-118.4-74.7Z"/><g><path class="cls-128" d="M388.03,548.24c-.01-.38-.03-.76-.05-1.14-.01-.17-.03-.35-.04-.52,0-.08-.01-.15-.02-.23-.01-.13-.02-.27-.03-.4-.04-.38-.08-.77-.13-1.15-.05-.39-.11-.79-.17-1.18v-.08c-.07-.37-.14-.74-.21-1.11-.08-.41-.16-.82-.25-1.23-.03-.15-.07-.29-.1-.44-.02-.09-.04-.17-.06-.26-.04-.18-.08-.36-.13-.54-.1-.42-.21-.83-.33-1.25-.08-.3-.18-.61-.27-.91-.02-.06-.03-.11-.05-.17-.02-.05-.03-.11-.05-.16-.12-.41-.25-.81-.39-1.22-.13-.4-.27-.8-.42-1.2-.03-.07-.06-.15-.08-.22-.02-.06-.05-.12-.07-.18-.09-.25-.18-.5-.28-.75-.15-.38-.3-.76-.46-1.14-.11-.28-.23-.55-.35-.82-.02-.05-.04-.1-.06-.14-.02-.05-.04-.1-.07-.16-.17-.38-.34-.76-.52-1.14-.2-.42-.4-.83-.6-1.24-.03-.06-.07-.13-.1-.19-.04-.08-.08-.16-.13-.24-.17-.33-.33-.66-.51-.98-.22-.41-.45-.81-.68-1.22-.11-.2-.22-.41-.34-.61-.05-.08-.09-.16-.13-.24-.21-.35-.43-.68-.65-1.03-.31-.51-.62-1.02-.95-1.52-.05-.08-.1-.16-.15-.24-.48-.72-.98-1.43-1.49-2.12-.34-.46-.69-.92-1.05-1.37-.29-.37-.58-.73-.88-1.09v-.02h-.03c-.3-.37-.6-.73-.91-1.08-.3-.34-.61-.68-.92-1.02-.05-.06-.1-.11-.15-.16-.05-.06-.11-.11-.16-.17-.21-.23-.43-.46-.65-.68-.33-.33-.66-.66-.99-.98-.1-.1-.21-.19-.31-.29-.08-.07-.16-.15-.24-.22-.16-.15-.32-.31-.49-.45-.35-.31-.7-.62-1.05-.91-.15-.13-.31-.25-.47-.38-.08-.06-.16-.13-.23-.19-.12-.09-.23-.19-.35-.28-.34-.27-.69-.53-1.03-.79-.25-.19-.51-.36-.76-.54-.05-.03-.09-.07-.14-.1-.04-.03-.09-.06-.13-.09-.33-.23-.67-.45-1-.66-.33-.21-.66-.41-1-.61-.08-.05-.15-.09-.23-.14-.25-.14-.5-.28-.75-.42-.09-.05-.19-.1-.28-.15-.13-.07-.26-.13-.39-.2-.1-.05-.2-.11-.3-.15-.16-.08-.31-.15-.47-.22-.11-.05-.23-.11-.34-.16-.05-.02-.09-.05-.14-.07-.31-.14-.63-.27-.94-.4h0c-.32-.13-.64-.25-.95-.36-.04-.01-.08-.03-.12-.04-.11-.04-.23-.07-.34-.11-.16-.05-.32-.11-.48-.16-.08-.02-.16-.04-.23-.06-.14-.04-.28-.08-.42-.12-.11-.03-.21-.06-.32-.09-.11-.03-.22-.05-.33-.07-.14-.03-.28-.06-.42-.09-.07-.02-.15-.03-.22-.05-.13-.03-.26-.04-.38-.06-.16-.03-.32-.06-.48-.08-.06,0-.11-.02-.17-.03-.13-.02-.26-.03-.39-.04-.17-.02-.34-.04-.51-.05-.05,0-.1-.01-.15-.02-.12,0-.23,0-.34-.01-.2,0-.4-.02-.6-.02-.06,0-.11,0-.17,0-.09,0-.17,.01-.26,.01-.25,0-.5,.02-.74,.03-.07,0-.15,0-.22,.01-.05,0-.11,.02-.16,.02-.37,.04-.74,.09-1.11,.16-.03,0-.06,0-.09,.01h-.02c-.51,.11-1.01,.25-1.5,.42-.04,.01-.09,.02-.13,.04-.03,.01-.07,.03-.1,.04-.21,.08-.42,.16-.62,.25-.1,.04-.2,.08-.3,.13-.3,.14-.59,.29-.88,.46l-11.04,5.73c.29-.17,.58-.32,.88-.46,.1-.05,.2-.08,.3-.13,.21-.09,.41-.18,.63-.26,.08-.03,.16-.05,.23-.08,.48-.17,.98-.31,1.5-.41,.03,0,.07-.01,.1-.02,.36-.07,.73-.12,1.11-.16,.13-.01,.26-.02,.38-.03,.24-.02,.49-.03,.74-.04,.14,0,.28,0,.42,0,.2,0,.4,.01,.6,.02,.16,0,.32,.01,.49,.03,.17,.01,.34,.03,.51,.05,.18,.02,.37,.04,.56,.07,.16,.02,.32,.05,.48,.08,.2,.03,.4,.07,.61,.11,.14,.03,.27,.06,.41,.09,.22,.05,.44,.1,.66,.16,.14,.04,.27,.07,.41,.11,.24,.07,.48,.14,.72,.22,.11,.04,.22,.07,.34,.11,.36,.12,.71,.25,1.07,.4h0c.36,.15,.71,.3,1.08,.47,.11,.05,.23,.11,.34,.16,.26,.12,.51,.25,.77,.38,.13,.07,.26,.13,.39,.2,.34,.18,.68,.37,1.03,.56,.8,.46,1.58,.96,2.36,1.5,.05,.03,.09,.07,.14,.1,.72,.51,1.44,1.04,2.14,1.61,.08,.06,.16,.13,.24,.19,.68,.56,1.35,1.14,2,1.75,.08,.07,.16,.15,.23,.22,.66,.63,1.32,1.28,1.95,1.95,.05,.06,.11,.11,.16,.17,.68,.73,1.35,1.48,1.99,2.26l.02,.02c1.27,1.53,2.46,3.14,3.57,4.83,.33,.5,.64,1.01,.95,1.52,.26,.42,.53,.84,.78,1.27,.12,.2,.23,.41,.34,.61,.41,.72,.81,1.45,1.19,2.19,.04,.08,.08,.16,.13,.24,.45,.9,.88,1.81,1.28,2.73,.02,.05,.04,.09,.06,.14,.39,.9,.76,1.81,1.1,2.72,.02,.06,.04,.12,.07,.18,.34,.93,.66,1.87,.94,2.8,.02,.06,.03,.11,.05,.17,.27,.9,.51,1.8,.72,2.7,.02,.09,.04,.17,.06,.26,.21,.93,.4,1.86,.54,2.78v.04c.15,.93,.26,1.85,.34,2.77,0,.08,.01,.15,.02,.23,.07,.92,.11,1.83,.11,2.72,0,.89-.05,1.75-.12,2.58,0,.08-.02,.15-.02,.22-.08,.76-.18,1.49-.32,2.2-.02,.09-.04,.19-.06,.28-.14,.68-.31,1.33-.51,1.96-.04,.12-.08,.23-.11,.35-.2,.59-.41,1.15-.66,1.68-.03,.06-.05,.12-.08,.18-.29,.61-.6,1.18-.95,1.72-.05,.07-.1,.13-.14,.2-.29,.43-.59,.83-.91,1.21-.12,.14-.24,.27-.36,.4-.28,.3-.58,.59-.88,.85-.13,.11-.25,.23-.38,.33-.43,.35-.88,.67-1.36,.95h0l11.04-5.73c.48-.28,.93-.6,1.36-.95,.13-.1,.25-.22,.38-.33,.31-.27,.6-.55,.88-.86,.12-.13,.24-.26,.36-.4,.32-.38,.63-.78,.91-1.21,.05-.07,.1-.13,.15-.2,.01-.02,.02-.03,.03-.05,.32-.51,.62-1.04,.89-1.61,0-.02,.02-.04,.02-.06,.03-.06,.05-.12,.08-.18,.16-.36,.32-.72,.46-1.1,.07-.19,.13-.39,.19-.58,.04-.12,.08-.23,.11-.35,.03-.11,.07-.2,.1-.31,.11-.39,.22-.79,.31-1.2,.03-.14,.06-.3,.09-.44,.02-.09,.04-.19,.06-.28,.03-.14,.06-.28,.09-.43,.06-.37,.12-.74,.17-1.13,.03-.21,.05-.43,.07-.64,0-.07,.02-.15,.02-.22,0-.09,.02-.18,.03-.27,.03-.36,.05-.73,.07-1.11,.02-.37,.02-.75,.03-1.14v-.07c0-.35,0-.71-.01-1.06Z"/><path class="cls-94" d="M353.52,514.38c13.01,7.51,23.52,25.71,23.48,40.66-.04,14.95-10.62,20.98-23.63,13.47s-23.51-25.72-23.47-40.66c.04-14.95,10.62-20.97,23.63-13.46Z"/></g><g><path class="cls-128" d="M365.82,359.92c-.01-.38-.03-.76-.05-1.14-.01-.17-.03-.35-.04-.52,0-.08-.01-.15-.02-.23-.01-.13-.02-.27-.03-.4-.04-.38-.08-.77-.13-1.15-.05-.39-.11-.79-.17-1.18v-.08c-.07-.37-.14-.74-.21-1.11-.08-.41-.16-.82-.25-1.23-.03-.15-.07-.29-.1-.44-.02-.09-.04-.17-.06-.26-.04-.18-.08-.36-.13-.54-.1-.42-.21-.83-.33-1.25-.08-.3-.18-.61-.27-.91-.02-.06-.03-.11-.05-.17-.02-.05-.03-.11-.05-.16-.12-.41-.25-.81-.39-1.22-.13-.4-.27-.8-.42-1.2-.03-.07-.06-.15-.08-.22-.02-.06-.05-.12-.07-.18-.09-.25-.18-.5-.28-.75-.15-.38-.3-.76-.46-1.14-.11-.27-.23-.55-.35-.82-.02-.05-.04-.1-.06-.14-.02-.05-.04-.1-.07-.16-.17-.38-.34-.76-.52-1.14-.2-.42-.4-.83-.6-1.24-.03-.06-.07-.13-.1-.19-.04-.08-.08-.16-.13-.24-.17-.33-.33-.66-.51-.98-.22-.41-.45-.81-.68-1.22-.11-.2-.22-.41-.34-.61-.05-.08-.09-.16-.13-.24-.21-.35-.43-.68-.65-1.03-.31-.51-.62-1.02-.95-1.52-.05-.08-.1-.16-.15-.24-.48-.72-.98-1.43-1.49-2.12-.34-.46-.69-.92-1.05-1.37-.29-.37-.58-.73-.88-1.09v-.02h-.03c-.3-.37-.6-.73-.91-1.08-.3-.34-.61-.68-.92-1.02-.05-.05-.1-.11-.15-.16-.05-.06-.11-.11-.16-.17-.21-.23-.43-.46-.65-.68-.33-.33-.66-.66-.99-.98-.1-.1-.21-.19-.31-.29-.08-.07-.16-.15-.24-.22-.16-.15-.32-.3-.49-.45-.35-.31-.7-.62-1.05-.91-.15-.13-.31-.25-.47-.38-.08-.06-.16-.13-.23-.19-.12-.09-.23-.19-.35-.28-.34-.27-.69-.53-1.03-.79-.25-.19-.51-.36-.76-.54-.05-.03-.09-.07-.14-.1-.04-.03-.09-.06-.13-.09-.33-.23-.67-.45-1-.66-.33-.21-.66-.41-1-.61-.08-.05-.15-.09-.23-.14-.25-.14-.5-.28-.75-.42-.09-.05-.19-.1-.28-.15-.13-.07-.26-.13-.39-.2-.1-.05-.2-.11-.3-.15-.16-.08-.31-.15-.47-.22-.11-.05-.23-.11-.34-.16-.05-.02-.09-.05-.14-.07-.31-.14-.63-.27-.94-.4h0c-.32-.13-.64-.25-.95-.36-.04-.01-.08-.03-.12-.04-.11-.04-.23-.07-.34-.11-.16-.05-.32-.11-.48-.16-.08-.02-.16-.04-.23-.06-.14-.04-.28-.08-.42-.12-.11-.03-.21-.06-.32-.09-.11-.03-.22-.05-.33-.07-.14-.03-.28-.06-.42-.09-.07-.02-.15-.03-.22-.05-.13-.03-.26-.04-.38-.06-.16-.03-.32-.06-.48-.08-.06,0-.11-.02-.17-.03-.13-.02-.26-.03-.39-.04-.17-.02-.34-.04-.51-.05-.05,0-.1-.01-.15-.02-.12,0-.23,0-.34-.01-.2,0-.4-.02-.6-.02-.06,0-.11,0-.17,0-.09,0-.17,.01-.26,.01-.25,0-.5,.02-.74,.03-.07,0-.15,0-.22,.01-.05,0-.11,.02-.16,.02-.37,.04-.74,.09-1.11,.16-.03,0-.06,0-.09,.01h-.02c-.51,.11-1.01,.25-1.5,.42-.04,.01-.09,.02-.13,.04-.03,.01-.07,.03-.1,.04-.21,.08-.42,.16-.62,.25-.1,.04-.2,.08-.3,.13-.3,.14-.59,.29-.88,.46l-11.04,5.73c.29-.17,.58-.32,.88-.46,.1-.05,.2-.08,.3-.13,.21-.09,.41-.18,.63-.26,.08-.03,.16-.05,.23-.08,.48-.17,.98-.31,1.5-.41,.03,0,.07-.01,.1-.02,.36-.07,.73-.12,1.11-.16,.13-.01,.26-.02,.38-.03,.24-.02,.49-.03,.74-.04,.14,0,.28,0,.42,0,.2,0,.4,.01,.6,.02,.16,0,.32,.01,.49,.03,.17,.01,.34,.03,.51,.05,.18,.02,.37,.04,.56,.07,.16,.02,.32,.05,.48,.08,.2,.03,.4,.07,.61,.11,.14,.03,.27,.06,.41,.09,.22,.05,.44,.1,.66,.16,.14,.04,.27,.07,.41,.11,.24,.07,.48,.14,.72,.22,.11,.04,.22,.07,.34,.11,.36,.12,.71,.25,1.07,.4h0c.36,.15,.71,.3,1.08,.47,.11,.05,.23,.11,.34,.16,.26,.12,.51,.25,.77,.38,.13,.07,.26,.13,.39,.2,.34,.18,.68,.37,1.03,.56,.8,.46,1.58,.96,2.36,1.5,.05,.03,.09,.07,.14,.1,.72,.5,1.44,1.04,2.14,1.61,.08,.06,.16,.13,.24,.19,.68,.56,1.35,1.14,2,1.75,.08,.07,.16,.15,.23,.22,.66,.63,1.32,1.28,1.95,1.95,.05,.06,.11,.11,.16,.17,.68,.73,1.35,1.48,1.99,2.26l.02,.02c1.27,1.53,2.46,3.14,3.57,4.83,.33,.5,.64,1.01,.95,1.52,.26,.42,.53,.84,.78,1.27,.12,.2,.23,.41,.34,.61,.41,.72,.81,1.45,1.19,2.19,.04,.08,.08,.16,.13,.24,.45,.9,.88,1.81,1.28,2.73,.02,.05,.04,.09,.06,.14,.39,.9,.76,1.81,1.1,2.72,.02,.06,.04,.12,.07,.18,.34,.93,.66,1.87,.94,2.8,.02,.06,.03,.11,.05,.17,.27,.9,.51,1.8,.72,2.7,.02,.09,.04,.17,.06,.26,.21,.93,.4,1.86,.54,2.78v.04c.15,.93,.26,1.85,.34,2.77,0,.08,.01,.15,.02,.23,.07,.92,.11,1.83,.11,2.72,0,.89-.05,1.75-.12,2.58,0,.08-.02,.15-.02,.22-.08,.76-.18,1.49-.32,2.2-.02,.09-.04,.19-.06,.28-.14,.68-.31,1.33-.51,1.96-.04,.12-.08,.23-.11,.35-.2,.59-.41,1.15-.66,1.68-.03,.06-.05,.12-.08,.18-.29,.61-.6,1.18-.95,1.72-.05,.07-.1,.13-.14,.2-.29,.43-.59,.83-.91,1.21-.12,.14-.24,.27-.36,.4-.28,.3-.58,.59-.88,.85-.13,.11-.25,.23-.38,.33-.43,.35-.88,.67-1.36,.95h0l11.04-5.73c.48-.28,.93-.6,1.36-.95,.13-.1,.25-.22,.38-.33,.31-.27,.6-.55,.88-.86,.12-.13,.24-.26,.36-.4,.32-.38,.63-.78,.91-1.21,.05-.07,.1-.13,.15-.2,.01-.02,.02-.03,.03-.05,.32-.5,.62-1.04,.89-1.61,0-.02,.02-.04,.02-.06,.03-.06,.05-.12,.08-.18,.16-.36,.32-.72,.46-1.1,.07-.19,.13-.39,.19-.58,.04-.12,.08-.23,.11-.35,.03-.11,.07-.2,.1-.31,.11-.39,.22-.79,.31-1.2,.03-.14,.06-.3,.09-.44,.02-.09,.04-.19,.06-.28,.03-.14,.06-.28,.09-.43,.06-.37,.12-.74,.17-1.13,.03-.21,.05-.43,.07-.64,0-.07,.02-.15,.02-.22,0-.09,.02-.18,.03-.27,.03-.36,.05-.73,.07-1.11,.02-.37,.02-.75,.03-1.14v-.07c0-.35,0-.71-.01-1.06Z"/><path class="cls-121" d="M331.32,326.05c13.01,7.51,23.52,25.71,23.48,40.66-.04,14.95-10.62,20.98-23.63,13.47-13.01-7.51-23.51-25.72-23.47-40.66,.04-14.95,10.62-20.97,23.63-13.46Z"/></g></g><path class="cls-137" d="M713.77,544.49s172.44,56.79,189.42,79.09c16.99,22.3,14.86,182.48,22.3,207.5,7.43,25.02,18.05,51.57,50.96,60.06,32.91,8.49,22.3,41.41-15.93,36.1-38.22-5.31-51,10.42-73.24,4.81-22.24-5.62-55.23-115.4-50.98-179.02,4.25-63.62-7.11-66.81-33.82-76.36-26.7-9.56-166.86-47.48-166.86-47.48l78.14-84.7Z"/><path class="cls-118" d="M648.49,263.07s75.42,13.57,114.2,58.93c38.78,45.36,68.04,87.07,68.04,87.07,0,0,33.66,74.63,27.8,91.46-5.85,16.83-160.81-86.34-160.81-86.34l-49.23-151.12Z"/><path class="cls-96" d="M853.36,286.03s-39.25,111.81-41.87,145.92c-2.62,34.11,21.28,82.71,47.05,68.58s55.94-183,55.94-183l-61.12-31.51Z"/><path class="cls-151" d="M713.77,544.49s-25.17,60.46-99.45,78.45c-74.28,17.99-124.4-8.62-124.4-8.62,0,0,1.45-35.99-15.1-101.48-14.62-57.94-12.37-134.47-3.69-163.28,1.12-3.8,2.36-6.75,3.69-8.73,11.51-17.3,168.42-77.76,182.83-77.76,0,0,42.47,12.96,50.39,21.58,7.93,8.68,5.73,259.83,5.73,259.83Z"/><path class="cls-129" d="M708.04,284.65s-176.72,87.34-184.7,87.34c-4.02,0-28.86-11.3-52.21-22.44,1.12-3.8,2.36-6.75,3.69-8.73,11.51-17.3,168.42-77.76,182.83-77.76,0,0,42.47,12.96,50.39,21.58Z"/><path class="cls-49" d="M644.33,247.14s-127.03,18.11-136.38,29.62c-9.36,11.52,0,44.62,0,44.62l17.99,9.54c8.35,4.43,18.3,4.66,26.84,.63l91.55-43.18v-41.23Z"/><g><g><path class="cls-133" d="M552.2,218.16v65.91s10.13-2.49,50.55-7.16c40.41-4.67,31.91-7.55,31.91-7.55v-67.27l-82.46,16.08Z"/><path class="cls-134" d="M643.43,129.99s5.87,36.48,3.08,40.85c-2.79,4.37-5.66,7.71-5.66,7.71,0,0,9.71,9.15,8.91,17.01-.79,7.86,1.26,48.79-.33,58.8-1.59,10-12.46,17.58-26.42,18.64-13.96,1.05-79.05-20.56-91.2-57.61-12.16-37.05,35.25-84.31,36.8-84.43,1.55-.12,74.82-.96,74.82-.96Z"/><path class="cls-87" d="M582.85,154.33s19.83,7.35,47.13,.61c27.3-6.74,50.25-33.44,36.59-49.05-13.66-15.61-14.36,2.64-33.53-3.19-19.16-5.84-56.09-26.45-91.26-17.04-35.18,9.41-23.58,45.99-23.58,45.99,0,0-16.68,6.46-14.96,29.21,1.72,22.75,33.75,81.98,42.11,82.54,8.36,.57,16.78,8.71,9.59-24.55-7.19-33.26,11.23-37.25,18.14-28.41,6.91,8.84,.84,24.9,3.62,27.29s10.24-9.09,8.7-22.5c-1.53-13.41,5.65-.95,8.89-13.15,3.24-12.21-11.45-27.74-11.45-27.74Z"/></g><path class="cls-68" d="M697.73,217.13s-3.16,36.2-19.22,46.91c-16.12,10.76-100.2,41.18-172.17,29.08-72.03-12.05-110.48-73.79-118.08-135C380.65,96.85,437.9,9.62,539.43,.67c101.48-8.94,154.71,74.22,154.71,74.22,0,0-45.2,58.59-115.35,75.13-70.21,16.55-92.16,3.59-92.16,3.59v52.75s39.84,34.01,105.98,39.36c64.26,5.19,102.82-26.67,105.01-28.49,.11-.05,.11-.11,.11-.11Z"/><path class="cls-136" d="M697.73,217.13s0,.05-.11,.11c-2.2,1.82-40.75,33.68-105.01,28.49-66.14-5.36-105.98-39.36-105.98-39.36v-52.75s21.96,12.96,92.16-3.59c70.15-16.55,115.35-75.13,115.35-75.13,0,0,19.49,12.21,24.15,60.08,4.71,47.93-20.56,82.15-20.56,82.15Z"/><g><path class="cls-128" d="M510.51,201.03c-.02-.53-.04-1.06-.07-1.59-.02-.24-.04-.49-.06-.73,0-.11-.02-.21-.02-.32-.02-.19-.03-.37-.04-.56-.05-.54-.11-1.07-.18-1.61-.07-.55-.15-1.1-.24-1.66v-.05l-.02-.06c-.08-.52-.17-1.04-.27-1.56-.11-.57-.22-1.15-.35-1.72-.04-.2-.1-.41-.14-.61-.03-.12-.06-.24-.08-.36-.06-.25-.11-.5-.18-.75-.14-.58-.3-1.17-.46-1.75-.12-.43-.25-.85-.37-1.28-.02-.08-.05-.16-.07-.23-.02-.08-.04-.15-.07-.23-.17-.57-.36-1.14-.55-1.7-.19-.56-.38-1.12-.59-1.68-.04-.1-.08-.21-.12-.31-.03-.08-.06-.17-.1-.25-.13-.35-.26-.7-.39-1.05-.21-.54-.42-1.07-.64-1.6-.16-.39-.33-.77-.49-1.15-.03-.07-.06-.13-.09-.2-.03-.07-.06-.15-.09-.22-.24-.53-.48-1.06-.72-1.59-.27-.58-.55-1.16-.84-1.74-.04-.09-.09-.18-.14-.27-.06-.11-.12-.23-.18-.34-.23-.46-.47-.92-.71-1.37-.31-.57-.63-1.14-.96-1.7-.16-.28-.31-.57-.48-.85-.06-.11-.12-.23-.19-.34-.29-.49-.61-.96-.9-1.44-.44-.71-.87-1.43-1.34-2.13-.07-.11-.14-.23-.21-.34-.67-1.01-1.37-2-2.09-2.97-.48-.65-.97-1.29-1.47-1.92-.41-.52-.82-1.02-1.23-1.53l-.02-.02-.02-.02c-.42-.5-.84-1-1.27-1.49-.42-.48-.85-.96-1.28-1.42-.07-.08-.15-.15-.22-.23-.07-.08-.15-.16-.23-.24-.3-.32-.6-.64-.91-.95-.46-.47-.92-.92-1.39-1.37-.15-.14-.29-.27-.44-.41-.11-.1-.22-.2-.33-.31-.23-.21-.45-.43-.68-.63-.48-.44-.97-.86-1.47-1.28-.22-.18-.44-.36-.66-.54-.11-.09-.22-.18-.33-.27-.16-.13-.32-.27-.48-.39-.48-.38-.96-.75-1.45-1.1-.35-.26-.71-.51-1.06-.76-.06-.04-.13-.09-.19-.14-.06-.04-.12-.09-.18-.13-.46-.32-.93-.63-1.4-.93-.46-.29-.93-.58-1.4-.86-.11-.06-.22-.13-.32-.19-.35-.2-.7-.4-1.05-.59-.13-.07-.26-.13-.39-.2-.18-.1-.36-.19-.54-.28-.14-.07-.28-.15-.42-.22-.22-.11-.44-.21-.66-.31-.16-.08-.32-.15-.48-.23-.07-.03-.13-.06-.2-.09-.44-.2-.88-.38-1.31-.56h0c-.45-.18-.89-.35-1.33-.51-.06-.02-.11-.04-.17-.06-.16-.06-.32-.1-.48-.16-.23-.07-.45-.15-.67-.22-.11-.03-.22-.06-.33-.09-.2-.06-.39-.11-.59-.16-.15-.04-.3-.09-.45-.12-.15-.04-.31-.07-.46-.1-.19-.04-.39-.09-.58-.13-.1-.02-.21-.05-.31-.07-.18-.04-.36-.06-.54-.09-.22-.04-.45-.08-.67-.11-.08-.01-.16-.03-.24-.04-.18-.02-.36-.04-.55-.06-.24-.03-.48-.05-.71-.07-.07,0-.14-.02-.21-.02-.16-.01-.32,0-.48-.02-.28-.01-.56-.03-.83-.03-.08,0-.16,0-.24,0-.12,0-.24,.01-.36,.02-.35,0-.69,.02-1.04,.05-.1,0-.21,0-.31,.01-.08,0-.15,.02-.22,.03-.52,.05-1.04,.13-1.55,.22-.04,0-.09,.01-.13,.02h-.02c-.72,.15-1.42,.35-2.09,.58-.06,.02-.13,.03-.19,.05-.05,.02-.09,.04-.14,.06-.3,.11-.58,.23-.87,.36-.14,.06-.28,.11-.42,.18-.42,.2-.83,.41-1.23,.64l-15.46,8.03c.4-.23,.81-.44,1.23-.64,.14-.06,.28-.12,.42-.18,.29-.13,.58-.25,.88-.36,.11-.04,.22-.07,.33-.11,.68-.23,1.38-.43,2.1-.58,.05,0,.1-.01,.14-.02,.51-.1,1.03-.17,1.55-.23,.18-.02,.36-.03,.54-.05,.34-.03,.69-.04,1.04-.05,.2,0,.39-.01,.59,0,.28,0,.56,.01,.84,.03,.23,.01,.45,.02,.68,.04,.24,.02,.48,.05,.71,.07,.26,.03,.52,.06,.78,.09,.22,.03,.44,.07,.67,.11,.28,.05,.56,.1,.85,.16,.19,.04,.38,.08,.58,.13,.3,.07,.61,.15,.92,.23,.19,.05,.38,.1,.58,.16,.33,.1,.67,.2,1.01,.31,.16,.05,.31,.1,.47,.15,.5,.17,1,.35,1.5,.56h0c.5,.2,1,.42,1.51,.65,.16,.07,.32,.15,.48,.23,.36,.17,.72,.34,1.08,.53,.18,.09,.36,.19,.54,.28,.48,.25,.96,.51,1.44,.79,1.11,.64,2.22,1.35,3.3,2.1,.07,.04,.13,.09,.19,.14,1.01,.71,2.01,1.46,2.99,2.25,.11,.09,.22,.18,.33,.27,.95,.78,1.89,1.6,2.8,2.45,.11,.1,.22,.2,.33,.31,.93,.88,1.84,1.79,2.74,2.73,.08,.08,.15,.16,.23,.24,.95,1.02,1.89,2.07,2.79,3.16l.02,.03c1.77,2.14,3.44,4.4,5,6.76,.46,.7,.89,1.41,1.33,2.12,.37,.59,.74,1.18,1.09,1.78,.16,.28,.32,.57,.48,.85,.57,1.01,1.14,2.04,1.66,3.07,.06,.11,.12,.23,.18,.34,.64,1.26,1.24,2.53,1.8,3.82,.03,.07,.06,.13,.08,.2,.55,1.26,1.06,2.53,1.53,3.81,.03,.08,.06,.16,.09,.25,.48,1.31,.92,2.62,1.32,3.93,.02,.08,.05,.16,.07,.24,.38,1.26,.71,2.52,1.01,3.78,.03,.12,.06,.24,.08,.36,.3,1.3,.55,2.6,.76,3.89,0,.02,0,.04,.01,.06,.21,1.3,.36,2.6,.47,3.88,0,.11,.02,.21,.03,.32,.1,1.28,.16,2.56,.15,3.81,0,1.25-.07,2.46-.17,3.62,0,.11-.02,.21-.03,.31-.11,1.07-.26,2.09-.45,3.08-.03,.13-.05,.26-.08,.39-.2,.95-.43,1.87-.71,2.74-.05,.16-.11,.32-.16,.48-.27,.82-.58,1.61-.92,2.35-.04,.08-.07,.17-.11,.26-.4,.85-.84,1.65-1.33,2.4-.06,.1-.14,.18-.2,.28-.4,.6-.83,1.16-1.28,1.69-.16,.19-.34,.37-.51,.56-.39,.42-.81,.82-1.24,1.2-.18,.16-.35,.32-.54,.46-.61,.48-1.24,.94-1.9,1.32h0l15.46-8.02c.67-.39,1.3-.84,1.91-1.33,.18-.15,.36-.31,.53-.46,.43-.37,.84-.77,1.24-1.2,.17-.18,.34-.36,.51-.56,.45-.53,.88-1.09,1.28-1.69,.07-.1,.14-.18,.2-.28,.01-.02,.03-.04,.05-.06,.45-.71,.87-1.46,1.24-2.26,.01-.03,.02-.06,.03-.08,.04-.08,.07-.17,.11-.26,.23-.5,.45-1,.65-1.54,.1-.26,.18-.54,.27-.82,.05-.16,.11-.32,.16-.48,.05-.15,.1-.29,.14-.43,.16-.55,.31-1.11,.44-1.68,.05-.2,.08-.42,.12-.62,.03-.13,.05-.26,.08-.39,.04-.2,.08-.39,.12-.6,.09-.51,.17-1.04,.24-1.58,.04-.29,.06-.6,.09-.9,.01-.1,.02-.21,.03-.31,.01-.13,.03-.25,.04-.37,.04-.51,.07-1.03,.1-1.56,.02-.52,.03-1.05,.04-1.59v-.09c0-.49,0-.99-.02-1.49Z"/><path class="cls-106" d="M462.19,153.6c18.22,10.52,32.94,36,32.88,56.94-.06,20.93-14.88,29.38-33.09,18.86-18.22-10.52-32.93-36.01-32.87-56.94s14.87-29.37,33.08-18.85Z"/></g></g><polygon class="cls-34" points="688.54 303.66 548.01 370.29 574.06 378.37 716.09 311.16 688.54 303.66"/><polygon class="cls-65" points="688.54 525.59 548.01 592.22 574.06 600.3 716.09 533.09 688.54 525.59"/><polygon class="cls-33" points="548.01 370.29 548.01 592.22 574.06 600.3 574.06 378.37 548.01 370.29"/><polygon class="cls-51" points="716.09 311.16 716.09 533.09 574.06 600.3 574.06 378.37 716.09 311.16"/><polygon class="cls-83" points="586.88 382.73 645.07 355.38 645.07 481.67 586.88 509.02 586.88 382.73"/><polygon class="cls-131" points="606.37 435.71 629.92 424.63 629.92 475.75 606.37 486.82 606.37 435.71"/><polygon class="cls-76" points="659.75 361.35 669.61 356.72 669.61 378.1 659.75 382.73 659.75 361.35"/><polygon class="cls-47" points="678.25 350.61 688.1 345.98 688.1 367.37 678.25 372 678.25 350.61"/><polygon class="cls-92" points="696.74 339.88 706.6 335.25 706.6 356.63 696.74 361.26 696.74 339.88"/><polygon class="cls-123" points="659.75 393.29 669.61 388.66 669.61 410.05 659.75 414.68 659.75 393.29"/><polygon class="cls-39" points="678.25 382.56 688.1 377.93 688.1 399.31 678.25 403.94 678.25 382.56"/><polygon class="cls-144" points="696.74 371.83 706.6 367.2 706.6 388.58 696.74 393.21 696.74 371.83"/><polygon class="cls-103" points="659.75 425.24 669.61 420.61 669.61 441.99 659.75 446.62 659.75 425.24"/><polygon class="cls-147" points="678.25 414.51 688.1 409.88 688.1 431.26 678.25 435.89 678.25 414.51"/><polygon class="cls-146" points="696.74 403.77 706.6 399.14 706.6 420.53 696.74 425.16 696.74 403.77"/><g><path class="cls-128" d="M667.76,504.64c.01-.34,.03-.68,.05-1.02,0-.15,.02-.31,.04-.46,0-.07,.01-.13,.02-.2,.01-.12,.02-.24,.03-.36,.03-.34,.07-.68,.11-1.03,.04-.35,.09-.7,.15-1.05v-.07c.06-.33,.12-.66,.18-.99,.07-.36,.14-.73,.22-1.1,.03-.13,.06-.26,.09-.39,.02-.08,.04-.15,.05-.23,.04-.16,.07-.32,.11-.48,.09-.37,.19-.74,.29-1.11,.08-.27,.16-.54,.24-.82,.02-.05,.03-.1,.04-.15,.01-.05,.03-.1,.04-.14,.11-.36,.23-.72,.35-1.09,.12-.36,.24-.71,.37-1.07,.02-.07,.05-.13,.07-.2,.02-.05,.04-.11,.06-.16,.08-.22,.16-.45,.25-.67,.13-.34,.27-.68,.41-1.02,.1-.25,.21-.49,.31-.73,.02-.04,.04-.09,.05-.13,.02-.05,.04-.09,.06-.14,.15-.34,.3-.68,.46-1.01,.17-.37,.35-.74,.54-1.11,.03-.06,.06-.11,.09-.17,.04-.07,.07-.14,.11-.22,.15-.29,.3-.58,.45-.87,.2-.37,.4-.72,.61-1.08,.1-.18,.2-.36,.31-.54,.04-.07,.08-.14,.12-.21,.18-.31,.39-.61,.58-.92,.28-.45,.56-.91,.85-1.36,.05-.07,.09-.14,.13-.21,.43-.64,.87-1.27,1.33-1.89,.31-.41,.62-.82,.93-1.23,.26-.33,.52-.65,.79-.97v-.02h.02c.27-.33,.54-.65,.81-.96,.27-.31,.54-.61,.82-.91,.05-.05,.09-.1,.14-.14,.05-.05,.1-.1,.14-.15,.19-.2,.38-.41,.58-.6,.29-.3,.59-.59,.88-.87,.09-.09,.19-.17,.28-.26,.07-.07,.14-.13,.21-.19,.14-.13,.29-.27,.43-.4,.31-.28,.62-.55,.93-.82,.14-.12,.28-.23,.42-.34,.07-.06,.14-.11,.21-.17,.1-.08,.2-.17,.31-.25,.31-.24,.61-.48,.92-.7,.22-.17,.45-.32,.68-.48,.04-.03,.08-.06,.12-.09,.04-.03,.08-.06,.11-.08,.3-.2,.59-.4,.89-.59,.29-.19,.59-.37,.89-.54,.07-.04,.14-.08,.21-.12,.22-.13,.45-.25,.67-.37,.08-.05,.17-.09,.25-.13,.12-.06,.23-.12,.34-.18,.09-.04,.18-.09,.27-.14,.14-.07,.28-.13,.42-.2,.1-.05,.2-.1,.31-.14,.04-.02,.08-.04,.13-.06,.28-.13,.56-.24,.83-.35h0c.28-.12,.57-.22,.85-.32,.04-.01,.07-.02,.11-.04,.1-.04,.2-.07,.3-.1,.14-.05,.29-.1,.43-.14,.07-.02,.14-.04,.21-.06,.12-.04,.25-.07,.37-.1,.09-.03,.19-.06,.29-.08,.1-.02,.2-.04,.29-.07,.12-.03,.25-.06,.37-.08,.07-.01,.13-.03,.2-.04,.12-.02,.23-.04,.34-.06,.14-.02,.28-.05,.43-.07,.05,0,.1-.02,.15-.02,.12-.02,.23-.02,.35-.04,.15-.02,.3-.03,.45-.05,.04,0,.09-.01,.13-.01,.1,0,.2,0,.3-.01,.18,0,.36-.02,.53-.02,.05,0,.1,0,.15,0,.08,0,.15,0,.23,.01,.22,0,.44,.01,.66,.03,.07,0,.13,0,.2,0,.05,0,.09,.02,.14,.02,.33,.03,.66,.08,.99,.14,.03,0,.06,0,.08,.01h0c.46,.1,.91,.22,1.34,.37,.04,.01,.08,.02,.12,.03,.03,.01,.06,.03,.09,.04,.19,.07,.37,.15,.56,.23,.09,.04,.18,.07,.27,.11,.27,.13,.53,.26,.79,.41l9.85,5.11c-.25-.15-.52-.28-.79-.41-.09-.04-.18-.07-.26-.11-.18-.08-.37-.16-.56-.23-.07-.02-.14-.05-.21-.07-.43-.15-.88-.27-1.34-.37-.03,0-.06,0-.09-.02-.32-.06-.65-.11-.99-.14-.11-.01-.23-.02-.34-.03-.22-.02-.44-.03-.66-.03-.13,0-.25,0-.38,0-.18,0-.36,0-.54,.02-.14,0-.29,.01-.43,.02-.15,.01-.3,.03-.46,.05-.16,.02-.33,.04-.5,.06-.14,.02-.28,.05-.42,.07-.18,.03-.36,.06-.54,.1-.12,.03-.24,.05-.37,.08-.19,.04-.39,.09-.59,.15-.12,.03-.24,.07-.37,.1-.21,.06-.43,.13-.64,.2-.1,.03-.2,.06-.3,.1-.32,.11-.64,.23-.96,.35h0c-.32,.13-.64,.27-.96,.42-.1,.05-.2,.1-.31,.14-.23,.11-.46,.22-.69,.34-.11,.06-.23,.12-.35,.18-.3,.16-.61,.33-.92,.5-.71,.41-1.41,.86-2.1,1.34-.04,.03-.08,.06-.12,.09-.64,.45-1.28,.93-1.91,1.44-.07,.06-.14,.11-.21,.17-.61,.5-1.2,1.02-1.79,1.56-.07,.06-.14,.13-.21,.19-.59,.56-1.17,1.14-1.74,1.74-.05,.05-.1,.1-.14,.15-.61,.65-1.2,1.32-1.78,2.01l-.02,.02c-1.13,1.36-2.19,2.8-3.18,4.3-.29,.44-.57,.9-.85,1.35-.23,.38-.47,.75-.7,1.13-.1,.18-.2,.36-.31,.54-.37,.65-.72,1.3-1.06,1.96-.04,.07-.08,.14-.11,.22-.4,.8-.79,1.61-1.15,2.43-.02,.04-.04,.08-.05,.12-.35,.8-.68,1.61-.98,2.43-.02,.05-.04,.1-.06,.16-.31,.83-.59,1.67-.84,2.5-.02,.05-.03,.1-.04,.15-.24,.8-.45,1.61-.64,2.41-.02,.08-.04,.15-.05,.23-.19,.83-.35,1.66-.48,2.48v.04c-.14,.83-.24,1.65-.3,2.47,0,.07-.01,.13-.02,.2-.06,.82-.1,1.63-.1,2.43,0,.8,.04,1.56,.11,2.3,0,.07,.01,.13,.02,.2,.07,.68,.16,1.33,.29,1.96,.02,.08,.03,.17,.05,.25,.13,.61,.28,1.19,.45,1.75,.03,.1,.07,.21,.1,.31,.17,.52,.37,1.02,.59,1.5,.02,.05,.04,.11,.07,.16,.25,.54,.54,1.05,.84,1.53,.04,.06,.09,.12,.13,.18,.26,.38,.53,.74,.82,1.08,.1,.12,.21,.24,.32,.35,.25,.27,.51,.52,.79,.76,.11,.1,.22,.2,.34,.29,.39,.31,.79,.6,1.21,.84h0l-9.85-5.11c-.43-.25-.83-.54-1.21-.85-.12-.09-.23-.2-.34-.29-.27-.24-.54-.49-.79-.76-.11-.12-.22-.23-.32-.35-.29-.34-.56-.7-.81-1.08-.04-.06-.09-.12-.13-.18,0-.01-.02-.03-.03-.04-.29-.45-.55-.93-.79-1.44,0-.02-.01-.04-.02-.05-.02-.05-.04-.11-.07-.16-.14-.32-.29-.64-.41-.98-.06-.17-.11-.35-.17-.52-.03-.1-.07-.2-.1-.31-.03-.09-.06-.18-.09-.28-.1-.35-.2-.71-.28-1.07-.03-.13-.05-.27-.08-.4-.02-.08-.03-.17-.05-.25-.02-.13-.05-.25-.08-.38-.06-.33-.11-.66-.15-1-.02-.19-.04-.38-.06-.57,0-.07-.01-.13-.02-.2,0-.08-.02-.16-.02-.24-.03-.32-.05-.66-.06-.99-.01-.33-.02-.67-.02-1.02v-.06c0-.31,0-.63,.01-.95Z"/><path class="cls-66" d="M698.54,474.43c-11.6,6.7-20.98,22.93-20.94,36.26,.04,13.33,9.48,18.71,21.08,12.01,11.6-6.7,20.97-22.94,20.93-36.27-.04-13.33-9.47-18.71-21.07-12.01Z"/></g><path class="cls-82" d="M893.2,182.37s-29.91,4.62-35.64,14.17c-5.73,9.55,20.36,46.06,50.91,48.17,30.55,2.11,55.36-9.98,50.91-18.89-4.45-8.91-52.18-50.27-71.27-55.36s-35.44-4.49-34.86,0c.59,4.49,30.54,16.86,39.95,11.92Z"/><g><g><path class="cls-71" d="M1092.54,695.5l149.53,244.7v470.51l-12.46,8.38-32.78-75.53v-110.1c0-33.86-8.89-66.77-25.28-93.59l-79.01-129.3-12.46-306.69,12.46-8.38Z"/><path class="cls-32" d="M1080.08,703.88l149.53,244.7v470.51l-45.24-67.15v-110.1c0-33.86-8.89-66.77-25.28-93.59l-79.01-129.3v-315.07Z"/></g><g><path class="cls-48" d="M796.15,1244.88c1.35,1.07,2.72,2.12,4.1,3.14,.63,.46,1.28,.9,1.91,1.35,.28,.2,.55,.39,.83,.58,.49,.34,.97,.7,1.46,1.03,1.42,.96,2.85,1.9,4.31,2.8,1.48,.92,2.98,1.82,4.49,2.69,.04,.03,.09,.05,.14,.07,.06,.03,.11,.06,.17,.09,1.42,.81,2.85,1.6,4.29,2.35,1.59,.83,3.2,1.64,4.82,2.41,.58,.27,1.16,.52,1.74,.79,.34,.16,.68,.31,1.02,.47,.72,.32,1.43,.66,2.15,.98,1.67,.72,3.36,1.41,5.06,2.07,1.24,.48,2.5,.93,3.76,1.38,.23,.08,.46,.17,.69,.25,.22,.08,.44,.17,.67,.24,1.68,.58,3.37,1.14,5.07,1.66,1.68,.52,3.37,1.01,5.07,1.47,.32,.09,.64,.16,.96,.24,.26,.07,.52,.13,.77,.2,1.07,.28,2.13,.56,3.21,.81,1.65,.39,3.3,.75,4.96,1.09,1.2,.24,2.41,.46,3.61,.67,.21,.04,.42,.08,.63,.12,.23,.04,.46,.09,.69,.13,1.68,.29,3.37,.54,5.05,.78,1.86,.26,3.73,.48,5.6,.67,.29,.03,.58,.04,.87,.07,.37,.04,.74,.06,1.11,.09,1.49,.13,2.99,.27,4.48,.36,1.89,.12,3.78,.13,5.67,.18,.95,.03,1.89,.08,2.84,.09,.37,0,.75,.03,1.12,.04,1.65,0,3.29-.15,4.94-.2,2.44-.07,4.87-.11,7.3-.29,.38-.03,.77-.01,1.15-.05,3.52-.29,7.03-.69,10.53-1.21,2.34-.35,4.66-.75,6.98-1.2,1.89-.37,3.77-.78,5.64-1.21,.03,0,.06-.01,.09-.02,.02,0,.05-.01,.07-.02,1.88-.44,3.75-.92,5.61-1.43,1.83-.5,3.65-1.04,5.45-1.61,.3-.09,.59-.2,.89-.3,.31-.1,.62-.21,.92-.31,1.24-.41,2.48-.81,3.71-1.25,1.84-.66,3.68-1.36,5.49-2.1,.56-.23,1.11-.49,1.68-.72,.42-.18,.83-.36,1.25-.54,.86-.37,1.74-.72,2.59-1.11,1.81-.82,3.6-1.68,5.37-2.58,.78-.39,1.54-.82,2.31-1.23,.39-.21,.77-.41,1.16-.62,.56-.31,1.14-.59,1.7-.91,1.65-.93,3.29-1.89,4.9-2.89,1.17-.72,2.32-1.48,3.46-2.24,.21-.14,.42-.26,.62-.4,.19-.13,.39-.25,.59-.38,1.48-1,2.95-2.04,4.39-3.1,1.42-1.05,2.82-2.13,4.2-3.24,.32-.26,.64-.51,.95-.77,1.03-.84,2.03-1.69,3.02-2.55,.37-.33,.73-.67,1.09-.99,.51-.45,1-.91,1.5-1.36,.38-.35,.78-.69,1.15-1.05,.6-.57,1.17-1.15,1.75-1.73,.42-.42,.86-.83,1.27-1.25,.17-.17,.35-.34,.52-.51,1.14-1.17,2.25-2.36,3.32-3.56l.02-.02h0c1.11-1.24,2.18-2.49,3.22-3.76,.13-.16,.26-.33,.39-.5,.37-.46,.73-.93,1.09-1.4,.52-.66,1.05-1.31,1.55-1.98,.25-.33,.47-.67,.71-1,.43-.59,.85-1.18,1.27-1.78,.32-.46,.66-.9,.97-1.36,.33-.48,.62-.97,.94-1.45,.4-.61,.8-1.22,1.18-1.83,.2-.33,.43-.65,.63-.97,.36-.58,.67-1.18,1.02-1.76,.43-.73,.85-1.45,1.26-2.19,.14-.26,.31-.52,.45-.78,.33-.61,.62-1.24,.94-1.86,.42-.81,.84-1.61,1.23-2.42,.12-.24,.25-.48,.37-.72,.27-.56,.49-1.13,.74-1.7,.45-.99,.89-1.97,1.3-2.96,.12-.28,.26-.56,.37-.85,.18-.44,.32-.89,.49-1.34,.5-1.28,.97-2.57,1.41-3.86,.13-.39,.3-.78,.43-1.17,.09-.29,.16-.59,.25-.88,.64-2.02,1.22-4.05,1.72-6.09,.04-.17,.1-.34,.14-.51,0-.03,.01-.06,.02-.1,.7-2.92,1.23-5.87,1.65-8.83,.04-.26,.11-.52,.15-.78,.03-.21,.04-.43,.06-.64,.17-1.3,.29-2.61,.4-3.92,.05-.64,.13-1.27,.17-1.91,.13-1.94,.21-3.89,.21-5.84l26.32-192.39c0,2.31-.1,4.61-.25,6.91-.05,.74-.14,1.49-.2,2.23-.13,1.56-.28,3.11-.47,4.66-.07,.56-.17,1.12-.25,1.68-.5,3.5-1.12,6.99-1.95,10.45-.05,.23-.13,.45-.18,.68-.6,2.42-1.29,4.83-2.05,7.23-.26,.81-.52,1.62-.8,2.42-.52,1.54-1.08,3.06-1.67,4.58-.33,.85-.65,1.71-1.01,2.56-.49,1.18-1.02,2.36-1.55,3.53-.43,.95-.85,1.89-1.3,2.83-.47,.96-.97,1.92-1.46,2.88-.54,1.04-1.07,2.08-1.64,3.1-.48,.87-.99,1.72-1.49,2.58-.64,1.09-1.28,2.17-1.95,3.25-.45,.72-.92,1.43-1.38,2.14-.74,1.13-1.5,2.25-2.28,3.36-.49,.69-.98,1.39-1.48,2.08-.87,1.19-1.77,2.37-2.69,3.53-.43,.55-.85,1.1-1.29,1.64-1.38,1.7-2.79,3.38-4.27,5.03l-.02,.02c-1.47,1.64-2.99,3.24-4.56,4.83-.49,.5-1,.99-1.51,1.48-1.12,1.11-2.27,2.2-3.44,3.28-.59,.54-1.18,1.08-1.78,1.62-1.58,1.41-3.19,2.82-4.86,4.19-3.85,3.15-7.86,6.09-11.98,8.85-.25,.17-.5,.32-.75,.48-3.86,2.55-7.83,4.93-11.89,7.13-.46,.25-.92,.49-1.38,.73-3.97,2.11-8.02,4.05-12.14,5.83-.49,.21-.98,.43-1.48,.64-4.22,1.77-8.51,3.38-12.86,4.82-.37,.12-.73,.25-1.09,.37-4.68,1.51-9.42,2.85-14.22,3.97-.04,0-.09,.02-.13,.03-9.42,2.2-19.04,3.62-28.73,4.34-2.87,.21-5.74,.26-8.62,.34-2.39,.07-4.78,.21-7.18,.19-1.12-.01-2.24-.08-3.37-.11-4.01-.1-8.01-.28-12-.64-.44-.04-.88-.06-1.32-.11-4.84-.46-9.66-1.11-14.45-1.94-.24-.04-.48-.09-.73-.14-4.69-.84-9.35-1.86-13.95-3.05-.3-.08-.6-.15-.89-.23-4.7-1.24-9.35-2.67-13.93-4.28-.27-.1-.55-.2-.82-.3-4.39-1.57-8.72-3.32-12.96-5.24-.4-.18-.81-.36-1.21-.55-4.37-2.01-8.66-4.19-12.84-6.57-.06-.04-.13-.07-.2-.11-4.21-2.41-8.31-5.02-12.3-7.8-.33-.23-.65-.46-.98-.69-3.97-2.82-7.84-5.79-11.55-8.98-3.7-3.18-7.16-6.49-10.41-9.89-.3-.31-.58-.62-.87-.93-2.97-3.15-5.74-6.39-8.32-9.7-.34-.44-.69-.88-1.02-1.33-2.48-3.26-4.77-6.58-6.88-9.97-.4-.64-.77-1.28-1.15-1.91-1.95-3.25-3.75-6.55-5.36-9.9-.18-.37-.39-.74-.57-1.11-1.82-3.87-3.42-7.79-4.8-11.76-.18-.52-.31-1.05-.48-1.57-1.07-3.23-1.99-6.49-2.77-9.77-.28-1.19-.52-2.38-.76-3.58-.57-2.77-1.03-5.54-1.38-8.33-.15-1.16-.32-2.31-.43-3.47-.37-3.83-.61-7.67-.6-11.51h0v-.02h0l22.99,192.84c-.01,3.25,.19,6.51,.51,9.75,.1,.98,.24,1.95,.37,2.93,.3,2.36,.69,4.71,1.17,7.05,.21,1.01,.41,2.02,.65,3.02,.66,2.77,1.44,5.52,2.34,8.25,.15,.45,.25,.9,.41,1.35,.04,.1,.06,.2,.09,.3,1.1,3.15,2.37,6.26,3.81,9.34,.05,.1,.11,.2,.15,.3,.15,.32,.33,.63,.48,.95,.91,1.89,1.85,3.78,2.89,5.63,.52,.92,1.1,1.82,1.64,2.73,.33,.54,.64,1.08,.98,1.62,.3,.48,.57,.97,.88,1.45,1.13,1.75,2.32,3.48,3.57,5.19,.44,.6,.92,1.19,1.37,1.78,.29,.38,.57,.75,.87,1.12,.45,.57,.86,1.15,1.32,1.72,1.16,1.42,2.36,2.83,3.6,4.22,.68,.76,1.41,1.51,2.12,2.27,.25,.26,.49,.53,.74,.79,.3,.31,.57,.63,.88,.94,1.22,1.24,2.47,2.47,3.75,3.68,1.28,1.2,2.59,2.38,3.94,3.55,.08,.07,.16,.14,.24,.2,1.23,1.06,2.48,2.1,3.75,3.11Z"/><path class="cls-132" d="M1002.41,1100.29c-62.93,51.5-164.07,50.17-225.93-3.01-61.86-53.18-60.98-138.06,1.95-189.56,62.93-51.5,164.07-50.11,225.93,3.07,61.86,53.18,60.98,138-1.95,189.5Z"/></g><path class="cls-57" d="M1103.37,780.04c0,142.35-16.26,222.67-16.26,222.67-9.59,82.54-94.13,147.18-197.09,147.18-51.45,0-98.28-16.12-133.53-42.65-35.19-26.45-58.73-63.23-63.5-104.53,0,0-40.33-198.97,5.95-525.51,9.59-67.68,23.39-126.75,39.34-177.79,2.25-7.24,4.55-14.33,6.88-21.25,59.52-176.97,142.19-250.57,144.79-252.86,.02-.02,.04-.03,.05-.04s.02,0,.02,0c0,0,0,0,.02,0s.03,.02,.05,.04c2.6,2.29,85.28,75.89,144.85,252.81,2.33,6.92,4.63,13.99,6.88,21.23,15.9,51.11,29.75,110.18,39.34,177.86,16.88,119.03,22.21,221.19,22.21,302.84Z"/><path class="cls-102" d="M1034.94,278.11c-34.3,47.29-86.49,77.5-144.92,77.5s-110.53-30.16-144.86-77.45c59.52-176.97,142.19-250.57,144.79-252.86,.02-.02,.04-.03,.05-.04s.02,0,.02,0c0,0,0,0,.02,0s.03,.02,.05,.04c2.6,2.29,85.28,75.89,144.85,252.81Z"/><g><path class="cls-104" d="M687.72,695.5l-149.53,244.7v470.51l12.46,8.38,32.78-75.53v-110.1c0-33.86,8.89-66.77,25.28-93.59l79.01-129.3,12.46-306.69-12.46-8.38Z"/><path class="cls-46" d="M700.18,703.88l-149.53,244.7v470.51l45.24-67.15v-110.1c0-33.86,8.89-66.77,25.28-93.59l79.01-129.3v-315.07Z"/></g><g><path class="cls-145" d="M919.25,815.27l58.43,244.7v470.51l-10.3-.06-7.38-67.09v-110.1c0-33.86-3.47-66.77-9.88-93.59l-30.87-129.3-9.18-310.88,9.18-4.19Z"/><path class="cls-41" d="M910.07,819.46l58.43,244.7v470.51l-17.68-67.15v-110.1c0-33.86-3.47-66.77-9.88-93.59l-30.87-129.3v-315.07Z"/></g><g><ellipse class="cls-81" cx="925.19" cy="599.88" rx="119.35" ry="123.45"/><ellipse class="cls-62" cx="930.62" cy="606.48" rx="119.35" ry="123.45"/><path class="cls-89" d="M1014.55,606.48c0,47.94-37.58,86.86-83.93,86.86-12.4,0-24.14-2.78-34.7-7.75,8.58,3.07,17.82,4.73,27.39,4.73,46.35,0,83.97-38.87,83.97-86.86,0-35.07-20.09-65.25-49.04-78.96,32.77,11.8,56.3,44.04,56.3,81.98Z"/><path class="cls-91" d="M1007.29,603.45c0,47.99-37.63,86.86-83.97,86.86-9.57,0-18.81-1.66-27.39-4.73-29.05-13.66-49.27-43.94-49.27-79.1,0-47.94,37.63-86.81,83.97-86.81,9.71,0,19,1.71,27.63,4.83,28.95,13.7,49.04,43.89,49.04,78.96Z"/><ellipse class="cls-73" cx="930.62" cy="502.86" rx="9.68" ry="10.01"/><ellipse class="cls-99" cx="930.62" cy="712.6" rx="9.68" ry="10.01"/><ellipse class="cls-107" cx="825.54" cy="604.31" rx="9.68" ry="10.01"/><ellipse class="cls-117" cx="1028.54" cy="604.31" rx="9.68" ry="10.01"/><ellipse class="cls-74" cx="997.61" cy="524.74" rx="9.68" ry="10.01"/><ellipse class="cls-90" cx="854.11" cy="531.02" rx="9.68" ry="10.01"/><ellipse class="cls-43" cx="997.61" cy="684.31" rx="9.68" ry="10.01"/><ellipse class="cls-108" cx="854.11" cy="674.3" rx="9.68" ry="10.01"/></g></g><path class="cls-139" d="M584.45,514.77s-74.54-3.75-59.01,60.62c0,0-52.94-89.88-82.42-148.07-33.7-66.54,28.11-121.04,80.33-55.32,24.33,30.63,61.1,142.77,61.1,142.77Z"/><path class="cls-95" d="M489.93,614.32s-27.29,82.22,33.38,130.19c60.67,47.97,141.38,92.08,141.38,92.08,0,0-44.86,88.51-24.7,153.39,20.16,64.88,21.63,99.25,20.57,124.78-1.06,25.53-17.02,53.18,56.37,106.36,73.39,53.18,117,20.21,112.74,0-4.25-20.21-86.71-57.95-88.28-121.57-1.57-63.62,31.49-286.15,30.43-316.33-1.06-30.18-131.7-168.91-131.7-168.91,0,0-54.91,28.18-150.19,0Z"/><path class="cls-119" d="M720.99,633.73s4.13-4.52-16.8,11.06c-20.99,15.53-15.58,39.52-15.58,39.52l-163.17-108.92c-15.53-64.37,59.01-60.62,59.01-60.62l136.55,118.96Z"/><path class="cls-122" d="M720.99,633.73s47.51,29.42,53.17,31.16c5.66,1.74,3.48,8.71-12.19,5.22-15.67-3.48-25.25,15.24,.87,21.33,26.12,6.1,29.01,12.7,14.94,22.24-14.07,9.55-48.82,12.54-61.7,3.44-12.88-9.1-27.48-32.82-27.48-32.82,0,0-18.17-35.6,32.39-50.58Z"/></g><g><g><polygon class="cls-1" points="1407.85 1323.62 1407.85 1418.78 1585.81 1262.26 1407.85 1323.62"/><polygon class="cls-93" points="1585.81 1262.26 1422.17 1352.56 1469.9 1435.96 1585.81 1262.26"/><polygon class="cls-141" points="1585.81 1262.26 1407.85 1323.62 1314.44 1282.06 1585.81 1262.26"/><polygon class="cls-52" points="1422.17 1352.56 1407.85 1418.78 1442.58 1388.23 1422.17 1352.56"/></g><g class="cls-60"><ellipse class="cls-14" cx="1450.13" cy="1529.23" rx="115.43" ry="65.3"/><ellipse class="cls-25" cx="1450.13" cy="1529.23" rx="112.88" ry="63.86"/><ellipse class="cls-9" cx="1450.13" cy="1529.23" rx="110.34" ry="62.42"/><ellipse class="cls-5" cx="1450.13" cy="1529.23" rx="107.79" ry="60.98"/><ellipse class="cls-30" cx="1450.13" cy="1529.23" rx="105.25" ry="59.54"/><ellipse class="cls-4" cx="1450.13" cy="1529.23" rx="102.7" ry="58.1"/><ellipse class="cls-19" cx="1450.13" cy="1529.23" rx="100.16" ry="56.66"/><ellipse class="cls-22" cx="1450.13" cy="1529.23" rx="97.61" ry="55.22"/><ellipse class="cls-20" cx="1450.13" cy="1529.23" rx="95.07" ry="53.78"/><ellipse class="cls-31" cx="1450.13" cy="1529.23" rx="92.52" ry="52.34"/><ellipse class="cls-21" cx="1450.13" cy="1529.23" rx="89.98" ry="50.9"/><ellipse class="cls-10" cx="1450.13" cy="1529.23" rx="87.43" ry="49.46"/><ellipse class="cls-23" cx="1450.13" cy="1529.23" rx="84.88" ry="48.02"/><ellipse class="cls-28" cx="1450.13" cy="1529.23" rx="82.34" ry="46.58"/><ellipse class="cls-13" cx="1450.13" cy="1529.23" rx="79.79" ry="45.14"/><ellipse class="cls-15" cx="1450.13" cy="1529.23" rx="77.25" ry="43.7"/><ellipse class="cls-12" cx="1450.13" cy="1529.23" rx="74.7" ry="42.26"/><ellipse class="cls-11" cx="1450.13" cy="1529.23" rx="72.16" ry="40.82"/><ellipse class="cls-29" cx="1450.13" cy="1529.23" rx="69.61" ry="39.38"/><ellipse class="cls-17" cx="1450.13" cy="1529.23" rx="67.07" ry="37.94"/><ellipse class="cls-7" cx="1450.13" cy="1529.23" rx="64.52" ry="36.5"/><ellipse class="cls-26" cx="1450.13" cy="1529.23" rx="61.98" ry="35.06"/><ellipse class="cls-18" cx="1450.13" cy="1529.23" rx="59.43" ry="33.62"/><ellipse class="cls-16" cx="1450.13" cy="1529.23" rx="56.88" ry="32.18"/><ellipse class="cls-8" cx="1450.13" cy="1529.23" rx="54.34" ry="30.74"/><ellipse class="cls-27" cx="1450.13" cy="1529.23" rx="51.79" ry="29.3"/><ellipse class="cls-6" cx="1450.13" cy="1529.23" rx="49.25" ry="27.86"/><ellipse class="cls-24" cx="1450.13" cy="1529.23" rx="46.7" ry="26.42"/></g></g><g><g><path class="cls-113" d="M1304.15,906.21c.34,4.51,.9,8.87,1.61,13.12,.15,.92,.22,1.91,.39,2.82,.95,5.09,2.19,9.95,3.67,14.62,.42,1.33,.97,2.54,1.43,3.83,1.17,3.27,2.44,6.45,3.89,9.46,.73,1.51,1.53,2.94,2.33,4.38,1.45,2.63,3,5.14,4.68,7.53,.94,1.34,1.88,2.66,2.89,3.92,1.89,2.36,3.95,4.54,6.09,6.62,1,.97,1.93,2.01,2.98,2.91,3.29,2.83,6.78,5.42,10.6,7.59l-32.7-19.02c-1.31-.99-2.6-2.02-3.84-3.09-1.05-.9-1.98-1.94-2.98-2.91-2.14-2.08-4.2-4.26-6.09-6.62-1.01-1.26-1.96-2.59-2.89-3.92-1.68-2.39-3.23-4.9-4.68-7.53-.8-1.44-1.6-2.87-2.33-4.38-1.45-3.01-2.72-6.2-3.89-9.46-.46-1.29-1.01-2.5-1.43-3.83-1.48-4.66-2.72-9.53-3.67-14.62-.17-.91-.24-1.9-.39-2.82-.7-4.25-1.26-8.62-1.61-13.12-.14-1.86-.18-3.78-.26-5.68-.16-3.75-.23-7.55-.15-11.44,.04-2.13,.13-4.28,.24-6.44,.21-3.93,.56-7.92,1-11.96,.23-2.13,.43-4.24,.73-6.39,.58-4.2,1.36-8.48,2.19-12.78,.37-1.93,.65-3.82,1.08-5.76,.47-2.16,1.07-4.36,1.6-6.53,.83-3.41,1.65-6.82,2.63-10.27,.49-1.7,1.04-3.42,1.56-5.13,1.16-3.79,2.38-7.59,3.71-11.41,.56-1.6,1.13-3.2,1.72-4.8,1.69-4.58,3.49-9.18,5.44-13.78,.28-.66,.53-1.33,.82-1.99,2.25-5.22,4.71-10.45,7.29-15.67,.63-1.27,1.29-2.55,1.94-3.82,2.65-5.19,5.4-10.38,8.37-15.54,3.08-5.33,6.3-10.48,9.58-15.53,.9-1.38,1.82-2.72,2.73-4.07,2.41-3.58,4.87-7.08,7.37-10.51,1.18-1.62,2.36-3.24,3.56-4.82,2.24-2.95,4.53-5.77,6.83-8.59,1.61-1.97,3.2-3.99,4.84-5.9,1.54-1.8,3.14-3.48,4.7-5.23,3.13-3.49,6.3-6.9,9.51-10.15,1.4-1.41,2.81-2.77,4.23-4.14,6.65-6.44,13.41-12.45,20.28-17.83,.92-.72,1.85-1.36,2.78-2.06,7.25-5.51,14.57-10.56,21.9-14.79,5.86-3.38,11.7-6.18,17.52-8.69,1.65-.71,3.29-1.39,4.93-2.03,3.46-1.35,6.89-2.51,10.31-3.54,1.72-.52,3.46-1.1,5.17-1.53,1.92-.49,3.82-.84,5.72-1.22,2.36-.47,4.72-.94,7.05-1.24,1.39-.18,2.77-.3,4.15-.41,2.66-.23,5.3-.36,7.91-.35,1.08,0,2.17-.02,3.24,.03,3.56,.14,7.08,.45,10.49,1.06,.31,.05,.6,.15,.9,.21,3.15,.6,6.23,1.45,9.24,2.46,.81,.27,1.62,.55,2.42,.85,3.26,1.23,6.45,2.63,9.51,4.37l25.94,14.52c-3.06-1.74-6.25-3.14-9.51-4.37-.8-.3-1.61-.58-2.42-.85-3.01-1.01-6.09-1.86-9.24-2.46-.31-.06-.6-.15-.9-.21-3.42-.61-6.93-.91-10.49-1.06-1.07-.04-2.16-.03-3.24-.03-2.6,0-5.24,.12-7.91,.35-1.38,.12-2.75,.23-4.15,.41-2.33,.3-4.69,.77-7.05,1.24-1.9,.38-3.8,.73-5.72,1.22-1.71,.43-3.45,1.02-5.17,1.53-3.42,1.03-6.85,2.19-10.31,3.54-1.64,.64-3.28,1.32-4.93,2.03-5.82,2.52-11.67,5.31-17.52,8.69-7.33,4.23-14.64,9.28-21.9,14.79-.92,.7-1.85,1.34-2.78,2.06-6.87,5.38-13.63,11.39-20.28,17.83-1.41,1.37-2.83,2.72-4.23,4.14-3.21,3.25-6.38,6.66-9.51,10.15-1.57,1.74-3.16,3.42-4.7,5.23-1.64,1.91-3.23,3.92-4.84,5.9-2.3,2.82-4.59,5.65-6.83,8.59-1.2,1.58-2.38,3.21-3.56,4.82-2.5,3.43-4.96,6.92-7.37,10.51-.91,1.36-1.83,2.69-2.73,4.07-3.29,5.05-6.51,10.2-9.58,15.53-2.98,5.16-5.72,10.35-8.37,15.54-.65,1.27-1.31,2.55-1.94,3.82-2.58,5.22-5.04,10.45-7.29,15.67-.29,.67-.53,1.33-.82,1.99-1.95,4.61-3.75,9.2-5.44,13.79-.59,1.6-1.16,3.2-1.72,4.8-1.34,3.82-2.56,7.62-3.71,11.41-.52,1.71-1.08,3.42-1.56,5.13-.98,3.45-1.8,6.86-2.63,10.27-.53,2.18-1.13,4.37-1.6,6.53-.42,1.94-.7,3.83-1.08,5.76-.83,4.3-1.61,8.58-2.19,12.78-.3,2.15-.5,4.26-.73,6.39-.44,4.04-.79,8.03-1,11.96-.11,2.16-.2,4.31-.24,6.44-.08,3.89-.01,7.69,.15,11.44,.08,1.9,.12,3.82,.26,5.68Z"/><path class="cls-38" d="M1343.64,983.23c27.24,15.6,62.92,10.66,98.56-9.92,35.64-20.58,71.24-56.79,98.3-103.74,54.26-93.82,53.97-195.09-.64-226.21-27.24-15.52-62.92-10.54-98.56,10.04-35.64,20.58-71.24,56.75-98.3,103.62-54.26,93.98-53.97,195.24,.64,226.21Z"/><path class="cls-44" d="M1360.82,953.48c22.47,12.87,51.9,8.79,81.3-8.18,29.4-16.97,58.76-46.84,81.08-85.57,44.75-77.39,44.52-160.92-.53-186.59-22.47-12.8-51.9-8.7-81.3,8.28-29.4,16.97-58.76,46.81-81.08,85.47-44.75,77.52-44.52,161.05,.53,186.59Z"/><path class="cls-84" d="M1378.28,923.24c17.62,10.09,40.7,6.89,63.76-6.43,23.05-13.32,46.08-36.75,63.58-67.12,35.1-60.7,34.91-126.21-.41-146.33-17.62-10.04-40.7-6.81-63.76,6.51-23.05,13.32-46.08,36.72-63.58,67.05-35.1,60.8-34.91,126.31,.41,146.33Z"/><path class="cls-101" d="M1396.09,892.39c12.67,7.25,29.28,4.94,45.87-4.65,16.59-9.59,33.15-26.45,45.74-48.31,25.25-43.68,25.11-90.81-.3-105.28-12.67-7.22-29.28-4.89-45.87,4.7-16.59,9.59-33.15,26.44-45.74,48.26-25.25,43.75-25.11,90.89,.3,105.28Z"/><path class="cls-63" d="M1414.06,861.25c7.68,4.4,17.75,3,27.81-2.82,10.06-5.81,20.1-16.04,27.73-29.29,15.31-26.48,15.23-55.06-.18-63.83-7.68-4.37-17.75-2.96-27.81,2.85-10.06,5.81-20.1,16.03-27.73,29.26-15.31,26.53-15.23,55.1,.18,63.83Z"/><path class="cls-88" d="M1343,757.03c27.06-46.87,62.66-83.04,98.3-103.62,34.13-19.71,68.3-25.09,95.05-11.88-26.15-10.93-58.71-5.16-91.24,13.62-35.64,20.58-71.24,56.75-98.3,103.62-54.26,93.98-53.97,195.24,.64,226.21,1.21,.69,2.45,1.33,3.7,1.95-2.57-1.07-5.07-2.29-7.51-3.69-54.61-30.96-54.9-132.23-.64-226.21Z"/></g><g><polygon class="cls-75" points="1488.76 831.73 1637.03 914.31 1660.23 900.84 1721.79 936.78 1695.19 955.72 1721.79 1005.72 1660.23 969.78 1635.48 926.52 1488.76 844.8 1488.76 831.73"/><polygon class="cls-148" points="1433.43 806.49 1514.99 815.08 1488.76 831.09 1639 915.24 1624.21 923.35 1474.35 839.88 1450.13 854.67 1433.43 806.49"/><polygon class="cls-36" points="1433.43 806.49 1450.13 854.67 1450.13 867.74 1433.43 819.56 1433.43 806.49"/><polygon class="cls-114" points="1514.99 815.08 1514.99 828.15 1499.52 837.12 1488.76 831.09 1514.99 815.08"/><polygon class="cls-97" points="1474.35 839.88 1474.35 852.95 1450.13 867.74 1450.13 854.67 1474.35 839.88"/><polygon class="cls-143" points="1474.35 839.88 1622.62 922.46 1645.82 908.99 1707.39 944.93 1680.78 963.87 1707.39 1013.87 1645.82 977.93 1621.07 934.67 1474.35 852.95 1474.35 839.88"/><polygon class="cls-148" points="1660.23 900.84 1645.82 908.99 1707.39 944.93 1721.79 936.78 1660.23 900.84"/><polygon class="cls-148" points="1695.19 955.72 1680.78 963.87 1707.39 1013.87 1721.79 1005.72 1695.19 955.72"/><g><polygon class="cls-61" points="1489.91 830.39 1489.21 830 1513.85 814.96 1514.99 815.08 1489.91 830.39"/><polygon class="cls-37" points="1434.29 806.58 1450.57 853.58 1474.8 838.79 1624.66 922.26 1638.23 914.81 1639 915.24 1624.21 923.35 1474.35 839.88 1450.13 854.67 1433.43 806.49 1434.29 806.58"/></g></g></g></g></svg>